<svg version="1.1" id="Layer_1" xmlns="http://www.w3.org/2000/svg" xmlns:xlink="http://www.w3.org/1999/xlink" x="0px" y="0px"
	 width="100%" viewBox="0 0 50 50" enable-background="new 0 0 50 50" xml:space="preserve">
<path fill="#E9F047" opacity="1.000000" stroke="none" 
	d="
M41.000000,51.000000 
	C37.969406,51.000000 34.938812,51.000000 31.454311,50.624897 
	C30.999193,49.499592 30.997980,48.749390 30.842400,47.734154 
	C29.793921,46.964096 28.899811,46.459076 27.962666,45.601894 
	C27.588163,44.118816 27.256697,42.987896 27.009850,41.591660 
	C27.793642,40.723370 28.492815,40.120396 29.534683,39.368477 
	C30.515385,38.470119 31.153393,37.720703 31.885744,36.905628 
	C31.980087,36.839966 32.230499,36.453510 32.443115,36.271694 
	C32.850685,35.771744 33.045639,35.453609 33.354877,35.138725 
	C33.469162,35.141979 33.687714,35.074715 33.880249,35.318104 
	C34.440262,35.732071 34.807739,35.902649 35.389954,36.091396 
	C35.604683,36.109566 36.032730,36.159924 36.081905,36.529198 
	C37.087727,38.933434 38.044376,40.968395 38.886753,43.269081 
	C38.828815,44.349552 38.885151,45.164295 38.938377,46.242340 
	C38.952496,46.680336 38.969723,46.855034 38.977718,47.269737 
	C38.968487,47.509743 39.022045,47.987114 39.111824,48.306641 
	C39.798042,49.246727 40.394478,49.867279 40.991051,50.615913 
	C40.991184,50.743992 41.000000,51.000000 41.000000,51.000000 
z"/>
<path fill="#F4B670" opacity="1.000000" stroke="none" 
	d="
M51.000000,18.000000 
	C51.000000,24.021152 51.000000,30.042305 50.574257,36.531818 
	C48.445396,36.998016 46.742283,36.995853 45.021172,36.746613 
	C45.003181,36.499535 44.971527,36.004948 44.984116,35.579231 
	C44.581051,32.668896 44.165394,30.184277 43.763245,27.519138 
	C43.776749,27.338623 43.932896,27.011986 43.997715,26.868187 
	C44.062534,26.724386 44.061436,26.408918 44.155640,26.161819 
	C44.259148,25.587290 44.268452,25.259859 44.451210,24.629904 
	C44.664646,22.562119 44.704632,20.796854 44.832005,18.816456 
	C44.919395,18.601320 44.949451,18.137877 45.001640,17.776100 
	C47.634991,11.527080 48.957069,18.422810 51.000000,18.000000 
z"/>
<path fill="#FFF2E0" opacity="1.000000" stroke="none" 
	d="
M8.000000,1.000000 
	C11.030593,1.000000 14.061185,1.000000 17.546268,1.426337 
	C18.318487,4.737614 18.636219,7.622555 18.913620,10.761270 
	C18.883852,11.184975 18.894415,11.354906 18.674324,11.715732 
	C18.272734,12.257833 18.101795,12.609041 17.716019,13.007326 
	C17.501181,13.054402 17.109314,13.254220 16.706408,13.183884 
	C15.213182,13.127069 14.122864,13.140593 12.772673,13.086436 
	C12.334997,13.037852 12.157194,13.056948 11.607462,13.049471 
	C10.492179,12.970990 9.748825,12.919082 9.003810,12.424681 
	C8.668099,8.321459 8.334049,4.660729 8.000000,1.000000 
z"/>
<path fill="#FFF3D8" opacity="1.000000" stroke="none" 
	d="
M7.502095,1.000000 
	C8.334049,4.660729 8.668099,8.321459 8.745205,12.565351 
	C8.271856,13.467472 8.055451,13.786429 7.719612,14.204622 
	C7.408529,14.411203 7.270828,14.566501 6.834572,14.739297 
	C5.979877,15.140553 5.477683,15.572263 4.990661,16.004856 
	C5.005833,16.005737 5.000895,15.975748 4.778164,15.987303 
	C4.555433,15.998858 4.111896,16.046249 3.723118,16.031191 
	C2.556227,16.010756 1.778113,16.005379 1.000000,16.000000 
	C1.000000,11.115304 1.000000,6.230608 1.000000,1.000000 
	C2.988142,1.000000 4.996166,1.000000 7.502095,1.000000 
z"/>
<path fill="#FDF2D1" opacity="1.000000" stroke="none" 
	d="
M1.000000,16.456848 
	C1.778113,16.005379 2.556227,16.010756 3.686929,16.394537 
	C4.354745,17.862787 4.669974,18.952633 4.996210,20.019787 
	C5.007218,19.997095 4.957054,19.991812 4.965017,20.334106 
	C5.375597,21.161442 5.778213,21.646481 6.401262,22.322130 
	C7.267546,23.486677 7.913395,24.460615 8.566415,25.472610 
	C8.573585,25.510666 8.549519,25.583771 8.375734,25.812246 
	C9.115455,26.877745 10.028957,27.714769 10.922251,29.001766 
	C11.403638,29.674637 11.905233,29.897535 12.409775,30.267874 
	C12.412720,30.415314 12.660652,30.576519 12.660652,30.576519 
	C12.660652,30.576519 12.930464,30.456444 12.592295,30.648138 
	C12.297695,31.812033 12.341264,32.784233 12.076714,33.910721 
	C10.843080,35.043381 9.917567,36.021751 8.732038,36.760490 
	C7.446360,32.197491 5.752692,28.398375 1.000000,27.000000 
	C1.000000,23.637899 1.000000,20.275797 1.000000,16.456848 
z"/>
<path fill="#F7E1C3" opacity="1.000000" stroke="none" 
	d="
M9.000000,51.000000 
	C6.386113,51.000000 3.772226,51.000000 1.000000,51.000000 
	C1.000000,46.315861 1.000000,41.630596 1.348564,36.515694 
	C3.793351,38.058392 5.889574,40.030720 7.988735,42.429623 
	C8.327782,45.570797 8.663891,48.285397 9.000000,51.000000 
z"/>
<path fill="#F9BE7A" opacity="1.000000" stroke="none" 
	d="
M51.000000,17.571537 
	C48.957069,18.422810 47.634991,11.527080 44.709602,17.633461 
	C43.113186,16.836739 41.861000,15.820880 40.602139,14.415878 
	C40.294281,13.045350 39.993107,12.063964 39.773285,10.753973 
	C39.847725,9.974225 39.840813,9.523081 40.099449,8.902248 
	C40.577393,8.154944 40.789783,7.577329 41.366043,7.042934 
	C43.152821,7.390573 44.575722,7.694989 46.262180,8.196679 
	C48.017159,9.595968 49.508579,10.797984 51.000000,12.000000 
	C51.000000,13.714358 51.000000,15.428716 51.000000,17.571537 
z"/>
<path fill="#F9E9CA" opacity="1.000000" stroke="none" 
	d="
M7.985796,42.003052 
	C5.889574,40.030720 3.793351,38.058392 1.348564,36.043030 
	C1.000000,33.299988 1.000000,30.599974 1.000000,27.449980 
	C5.752692,28.398375 7.446360,32.197491 8.733278,37.176849 
	C8.992490,39.220402 8.990444,40.607960 8.737745,41.997040 
	C8.319993,42.000057 8.152894,42.001556 7.985796,42.003052 
z"/>
<path fill="#EFB668" opacity="1.000000" stroke="none" 
	d="
M45.039165,36.993690 
	C46.742283,36.995853 48.445396,36.998016 50.574257,37.000092 
	C51.000000,40.833332 50.653339,44.708263 51.106754,48.487190 
	C51.487831,51.663189 49.654381,50.951923 47.493790,50.608551 
	C46.688526,48.754307 46.389477,47.291512 46.083900,45.525330 
	C46.048458,44.814453 46.019543,44.406956 45.995483,43.598568 
	C45.661057,41.483517 45.321770,39.769363 44.991707,37.789562 
	C45.013680,37.347176 45.026424,37.170433 45.039165,36.993690 
z"/>
<path fill="#F8E9D1" opacity="1.000000" stroke="none" 
	d="
M7.988734,42.429623 
	C8.152894,42.001556 8.319993,42.000057 8.887880,42.317230 
	C11.671186,47.264088 14.405327,43.847939 17.155769,43.145821 
	C17.436171,43.561935 17.629412,43.768810 17.892578,44.316784 
	C17.947449,45.450195 17.972672,46.204887 17.819435,47.231499 
	C17.093987,48.668941 16.546993,49.834469 16.000000,51.000000 
	C13.958333,51.000000 11.916667,51.000000 9.437500,51.000000 
	C8.663891,48.285397 8.327782,45.570797 7.988734,42.429623 
z"/>
<path fill="#F5B574" opacity="1.000000" stroke="none" 
	d="
M41.002174,6.999713 
	C40.789783,7.577329 40.577393,8.154944 39.844200,8.889143 
	C38.990540,8.983081 38.657677,8.920439 38.263958,8.589380 
	C38.086487,7.972950 37.969875,7.624933 37.804565,6.946669 
	C36.782581,6.598292 35.809303,6.580163 34.532066,6.599238 
	C33.834129,6.740424 33.440144,6.844408 33.049896,6.743758 
	C33.053635,6.539125 32.924362,6.150131 33.153954,5.999659 
	C33.584389,5.549113 33.785229,5.249040 33.984070,4.673303 
	C33.976822,4.213935 33.971565,4.030231 33.815887,3.610286 
	C33.232903,3.080315 32.800343,2.786583 32.486710,2.223135 
	C32.403763,1.635613 32.201881,1.317806 32.000000,1.000000 
	C34.700012,1.000000 37.400028,1.000000 40.548080,1.428444 
	C40.998138,3.571163 41.000156,5.285438 41.002174,6.999713 
z"/>
<path fill="#E8EE47" opacity="1.000000" stroke="none" 
	d="
M38.941490,45.979042 
	C38.885151,45.164295 38.828815,44.349552 39.256493,43.261154 
	C41.166843,42.659264 42.593178,42.331020 44.153061,42.252388 
	C44.562538,42.995918 44.838467,43.489838 45.077225,44.329552 
	C45.313595,45.524868 45.587132,46.374390 45.860306,47.601982 
	C45.906628,48.986702 45.953312,49.993351 46.000000,51.000000 
	C44.611111,51.000000 43.222221,51.000000 41.416664,51.000000 
	C41.000000,51.000000 40.991184,50.743992 41.079987,50.251122 
	C40.915630,49.080967 40.662476,48.403687 40.318687,47.553898 
	C40.228062,47.381393 40.050953,47.033665 39.922913,46.804382 
	C39.510410,46.376411 39.225948,46.177727 38.941490,45.979042 
z"/>
<path fill="#FBC377" opacity="1.000000" stroke="none" 
	d="
M51.000000,11.517044 
	C49.508579,10.797984 48.017159,9.595968 46.271683,7.802265 
	C46.345085,5.140385 46.672543,3.070192 47.000000,1.000000 
	C48.290489,1.000000 49.580982,1.000000 51.000000,1.000000 
	C51.000000,4.344112 51.000000,7.689100 51.000000,11.517044 
z"/>
<path fill="#FFF0D0" opacity="1.000000" stroke="none" 
	d="
M18.953949,10.507496 
	C18.636219,7.622555 18.318487,4.737614 18.000378,1.426337 
	C19.066669,1.000000 20.133339,1.000000 21.543358,1.251071 
	C21.926472,1.669059 21.966236,1.835976 21.941113,2.374824 
	C21.910761,3.498355 21.945297,4.249954 21.875874,5.346127 
	C21.748632,6.168244 21.725351,6.645787 21.655399,7.314775 
	C21.608727,7.506219 21.724281,7.883000 21.695829,8.156626 
	C21.705570,8.609631 21.743761,8.789011 21.747150,9.365026 
	C21.792021,10.014864 21.871687,10.268066 21.976162,10.510367 
	C22.000969,10.499467 21.992239,10.445465 21.622204,10.450363 
	C20.774927,10.576791 20.297688,10.698319 19.605106,10.738207 
	C19.389763,10.656565 18.953949,10.507496 18.953949,10.507496 
z"/>
<path fill="#FCC27E" opacity="1.000000" stroke="none" 
	d="
M46.571537,1.000000 
	C46.672543,3.070192 46.345085,5.140385 46.008125,7.604991 
	C44.575722,7.694989 43.152821,7.390573 41.366043,7.042934 
	C41.000156,5.285438 40.998138,3.571163 40.998062,1.428444 
	C42.714359,1.000000 44.428715,1.000000 46.571537,1.000000 
z"/>
<path fill="#DA6D47" opacity="1.000000" stroke="none" 
	d="
M21.979834,5.001553 
	C21.945297,4.249954 21.910761,3.498355 22.156775,2.262900 
	C22.702332,1.575309 22.889891,1.315627 23.000000,1.000000 
	C24.388889,1.000000 25.777779,1.000000 27.646711,1.311370 
	C28.188595,1.825348 28.250437,2.027957 28.266239,2.512255 
	C28.200848,3.368223 28.181496,3.942502 27.851051,4.687629 
	C26.742476,5.355823 25.944994,5.853168 24.943470,6.046324 
	C23.819565,5.495274 22.899700,5.248414 21.979834,5.001553 
z"/>
<path fill="#C8763B" opacity="1.000000" stroke="none" 
	d="
M16.428463,51.000000 
	C16.546993,49.834469 17.093987,48.668941 18.069237,47.239960 
	C18.664148,46.979790 18.830803,46.983070 19.024498,47.285599 
	C19.384237,48.045300 19.716934,48.505745 20.273594,48.911362 
	C20.794519,48.746979 21.042040,48.568756 21.432510,48.288025 
	C21.624895,48.254192 22.011457,48.197643 22.130859,48.376968 
	C22.450481,48.776302 22.690508,48.936825 22.847679,49.284084 
	C22.483343,50.020199 22.241673,50.510101 22.000000,51.000000 
	C20.285643,51.000000 18.571283,51.000000 16.428463,51.000000 
z"/>
<path fill="#E5E446" opacity="1.000000" stroke="none" 
	d="
M30.996769,47.999187 
	C30.997980,48.749390 30.999193,49.499592 31.000202,50.624897 
	C29.933481,51.000000 28.866964,51.000000 27.323112,50.767578 
	C26.668272,50.240135 26.413967,50.045395 25.955576,49.745338 
	C25.617409,49.269619 25.341307,49.119312 24.999241,48.802689 
	C25.000538,48.325821 25.002575,48.135078 25.432024,47.964352 
	C27.571880,47.989307 29.284325,47.994247 30.996769,47.999187 
z"/>
<path fill="#B34525" opacity="1.000000" stroke="none" 
	d="
M28.312281,2.230566 
	C28.250437,2.027957 28.188595,1.825348 28.063377,1.311370 
	C29.066669,1.000000 30.133339,1.000000 31.600004,1.000000 
	C32.201881,1.317806 32.403763,1.635613 32.359066,2.411500 
	C32.112488,2.869581 31.952597,3.278287 31.738480,3.533816 
	C31.348434,4.191801 31.172508,4.594258 30.735916,4.824363 
	C29.754263,3.844862 29.033272,3.037713 28.312281,2.230566 
z"/>
<path fill="#D9B131" opacity="1.000000" stroke="none" 
	d="
M25.004612,47.944336 
	C25.002575,48.135078 25.000538,48.325821 25.023945,49.027401 
	C25.049389,49.538239 25.117241,49.986908 25.090702,50.240501 
	C25.042776,50.662731 25.021387,50.831364 25.000000,51.000000 
	C24.250000,51.000000 23.500000,51.000000 22.375000,51.000000 
	C22.241673,50.510101 22.483343,50.020199 22.864624,49.275749 
	C23.004234,49.021206 23.036175,49.002769 23.263878,48.825928 
	C23.667450,48.109535 23.843319,47.569981 24.264812,47.011627 
	C24.510437,46.992821 25.000427,46.941349 25.004826,47.192081 
	C25.007687,47.609989 25.006149,47.777164 25.004612,47.944336 
z"/>
<path fill="#D79335" opacity="1.000000" stroke="none" 
	d="
M46.250000,51.000000 
	C45.953312,49.993351 45.906628,48.986702 45.921310,47.252705 
	C46.018600,46.293140 46.054512,46.060925 46.090427,45.828712 
	C46.389477,47.291512 46.688526,48.754307 46.993790,50.608551 
	C47.000000,51.000000 46.500000,51.000000 46.250000,51.000000 
z"/>
<path fill="#C0981C" opacity="1.000000" stroke="none" 
	d="
M25.333334,51.000000 
	C25.021387,50.831364 25.042776,50.662731 25.331646,50.235455 
	C25.599129,49.976814 26.082859,49.950935 26.082859,49.950935 
	C26.413967,50.045395 26.668272,50.240135 26.922890,50.767578 
	C26.555555,51.000000 26.111113,51.000000 25.333334,51.000000 
z"/>
<path fill="#DC7E52" opacity="1.000000" stroke="none" 
	d="
M22.750000,1.000000 
	C22.889891,1.315627 22.702332,1.575309 22.221661,1.890969 
	C21.966236,1.835976 21.926472,1.669059 21.943354,1.251071 
	C22.000000,1.000000 22.500000,1.000000 22.750000,1.000000 
z"/>
<path fill="#EDFB4C" opacity="1.000000" stroke="none" 
	d="
M44.019512,42.002777 
	C42.593178,42.331020 41.166843,42.659264 39.370766,42.995430 
	C38.044376,40.968395 37.087727,38.933434 36.282356,36.361916 
	C36.596603,35.525768 36.759579,35.226177 37.051064,34.668747 
	C37.481506,33.916237 37.783443,33.421562 38.282310,32.913658 
	C38.479240,32.900425 38.873962,32.905403 39.293858,32.939499 
	C40.828667,32.982960 41.943581,32.992329 43.108017,33.316200 
	C43.464451,34.419155 43.771362,35.207600 44.046974,36.370483 
	C44.085175,37.488514 44.154678,38.232117 44.179184,39.353050 
	C44.095955,40.487850 44.057735,41.245316 44.019512,42.002777 
z"/>
<path fill="#FEC486" opacity="1.000000" stroke="none" 
	d="
M38.873962,32.905403 
	C38.873962,32.905403 38.479240,32.900425 37.931503,32.905548 
	C36.602539,33.298401 35.821316,33.686131 35.009846,34.241722 
	C34.979603,34.409580 34.943130,34.748749 34.632118,34.841187 
	C34.109974,34.980648 33.898846,35.027679 33.687714,35.074715 
	C33.687714,35.074715 33.469162,35.141979 33.016716,35.125839 
	C32.016743,35.418461 31.469219,35.727222 30.598665,36.092850 
	C29.844202,36.221172 29.412767,36.292637 28.845383,36.170517 
	C28.078310,35.992676 27.447191,36.008419 26.750832,35.924255 
	C26.685591,35.824348 26.658812,35.587215 26.784925,35.200607 
	C26.967285,34.549377 27.023529,34.284752 27.370100,33.994267 
	C28.126455,33.655346 28.592485,33.342285 29.261103,32.915329 
	C29.725559,32.612083 29.900169,32.361839 30.135715,31.877899 
	C30.283911,31.705105 30.671705,31.466578 31.083206,31.423807 
	C31.842121,30.769844 32.189537,30.158649 32.595367,29.430431 
	C32.653786,29.313410 32.534908,29.080395 32.487587,29.235487 
	C32.440266,29.390579 32.655224,29.634670 32.655224,29.634670 
	C32.655224,29.634670 32.975689,29.581699 32.870876,29.961681 
	C33.223812,30.573986 33.681564,30.806311 34.535583,31.024799 
	C35.986053,30.906694 37.040253,30.802423 38.303444,30.922642 
	C38.632946,31.733221 38.753456,32.319313 38.873962,32.905403 
z"/>
<path fill="#531F03" opacity="1.000000" stroke="none" 
	d="
M26.658812,35.587215 
	C26.658812,35.587215 26.685591,35.824348 26.584787,35.955193 
	C26.483984,36.086033 26.273859,36.351570 26.296085,36.481606 
	C26.483261,36.845795 26.713028,36.972549 27.247072,37.021008 
	C27.486530,37.050121 27.957907,37.152847 28.124390,37.441887 
	C28.591244,38.326424 28.891617,38.921921 29.191988,39.517422 
	C28.492815,40.120396 27.793642,40.723370 26.696800,41.641251 
	C25.888258,42.048645 25.477386,42.141132 25.020954,41.888115 
	C24.586344,41.002991 24.197294,40.463371 23.802532,39.568058 
	C24.206547,37.866272 24.616272,36.520184 25.299664,35.242378 
	C25.935158,35.402843 26.296986,35.495029 26.658812,35.587215 
z"/>
<path fill="#E6EA4C" opacity="1.000000" stroke="none" 
	d="
M25.066513,42.233620 
	C25.477386,42.141132 25.888258,42.048645 26.612179,41.906570 
	C27.256697,42.987896 27.588163,44.118816 27.590271,45.631126 
	C26.514599,45.998955 25.768290,45.985390 24.809097,45.745331 
	C24.379663,44.940624 24.163113,44.362419 24.087433,43.587410 
	C24.507708,43.004944 24.787111,42.619278 25.066513,42.233620 
z"/>
<path fill="#CAA323" opacity="1.000000" stroke="none" 
	d="
M25.021978,45.971825 
	C25.768290,45.985390 26.514599,45.998955 27.633305,45.983288 
	C28.899811,46.459076 29.793921,46.964096 30.842400,47.734154 
	C29.284325,47.994247 27.571880,47.989307 25.432024,47.964352 
	C25.006149,47.777164 25.007687,47.609989 25.006775,46.949966 
	C25.004322,46.457123 25.021978,45.971825 25.021978,45.971825 
z"/>
<path fill="#712204" opacity="1.000000" stroke="none" 
	d="
M29.534683,39.368477 
	C28.891617,38.921921 28.591244,38.326424 28.322050,37.341362 
	C28.651932,36.851330 28.861300,36.655430 28.981333,36.364101 
	C29.412767,36.292637 29.844202,36.221172 30.589281,36.107178 
	C30.902925,36.064648 30.918819,36.096443 31.098236,36.353783 
	C31.448902,36.731178 31.620152,36.851234 31.791401,36.971291 
	C31.153393,37.720703 30.515385,38.470119 29.534683,39.368477 
z"/>
<path fill="#EDC94F" opacity="1.000000" stroke="none" 
	d="
M34.943130,34.748749 
	C34.943130,34.748749 34.979603,34.409580 35.248337,34.341919 
	C35.985561,34.491699 36.454060,34.709141 36.922554,34.926582 
	C36.759579,35.226177 36.596603,35.525768 36.233177,35.992641 
	C36.032730,36.159924 35.604683,36.109566 35.324829,35.761040 
	C35.011021,35.191257 34.977074,34.970001 34.943130,34.748749 
z"/>
<path fill="#C7A11F" opacity="1.000000" stroke="none" 
	d="
M40.409317,47.726402 
	C40.662476,48.403687 40.915630,49.080967 41.079853,50.123039 
	C40.394478,49.867279 39.798042,49.246727 39.461487,48.257133 
	C39.950687,47.834202 40.180004,47.780300 40.409317,47.726402 
z"/>
<path fill="#E89649" opacity="1.000000" stroke="none" 
	d="
M30.912310,36.050316 
	C31.469219,35.727222 32.016743,35.418461 32.902428,35.122585 
	C33.045639,35.453609 32.850685,35.771744 32.122887,36.150017 
	C31.366304,36.172253 31.142561,36.134350 30.918819,36.096443 
	C30.918819,36.096443 30.902925,36.064648 30.912310,36.050316 
z"/>
<path fill="#C7A11F" opacity="1.000000" stroke="none" 
	d="
M38.938377,46.242340 
	C39.225948,46.177727 39.510410,46.376411 39.656540,46.798672 
	C39.341118,47.024742 39.164032,47.027237 38.986950,47.029732 
	C38.969723,46.855034 38.952496,46.680336 38.938377,46.242340 
z"/>
<path fill="#CF9D32" opacity="1.000000" stroke="none" 
	d="
M38.977718,47.269737 
	C39.164032,47.027237 39.341118,47.024742 39.784576,47.027954 
	C40.050953,47.033665 40.228062,47.381393 40.318687,47.553898 
	C40.180004,47.780300 39.950687,47.834202 39.371708,47.937607 
	C39.022045,47.987114 38.968487,47.509743 38.977718,47.269737 
z"/>
<path fill="#EE9E5A" opacity="1.000000" stroke="none" 
	d="
M34.632118,34.841187 
	C34.977074,34.970001 35.011021,35.191257 35.110096,35.742874 
	C34.807739,35.902649 34.440262,35.732071 33.880249,35.318104 
	C33.898846,35.027679 34.109974,34.980648 34.632118,34.841187 
z"/>
<path fill="#E3B64A" opacity="1.000000" stroke="none" 
	d="
M31.098236,36.353783 
	C31.142561,36.134350 31.366304,36.172253 31.910273,36.331833 
	C32.230499,36.453510 31.980087,36.839966 31.885746,36.905628 
	C31.620152,36.851234 31.448902,36.731178 31.098236,36.353783 
z"/>
<path fill="#541003" opacity="1.000000" stroke="none" 
	d="
M44.744614,19.031593 
	C44.704632,20.796854 44.664646,22.562119 44.127712,24.646227 
	C42.762123,24.967331 41.893490,24.969589 40.995132,24.685509 
	C40.664139,23.937105 40.362869,23.475044 40.049179,22.637527 
	C40.037006,21.511185 40.037262,20.760296 40.382416,19.967489 
	C42.066418,19.627579 43.405514,19.329586 44.744614,19.031593 
z"/>
<path fill="#671906" opacity="1.000000" stroke="none" 
	d="
M44.832005,18.816456 
	C43.405514,19.329586 42.066418,19.627579 40.122120,19.848526 
	C39.005219,19.222061 38.493519,18.672642 38.012543,17.735571 
	C38.045475,16.575291 38.047680,15.802662 38.477196,15.008867 
	C39.472610,14.926807 40.040714,14.865913 40.608818,14.805020 
	C41.861000,15.820880 43.113186,16.836739 44.657410,17.995237 
	C44.949451,18.137877 44.919395,18.601320 44.832005,18.816456 
z"/>
<path fill="#641D06" opacity="1.000000" stroke="none" 
	d="
M41.024853,24.971848 
	C41.893490,24.969589 42.762123,24.967331 43.954254,24.948750 
	C44.268452,25.259859 44.259148,25.587290 44.051392,26.184195 
	C43.711002,26.672829 43.737656,26.858934 43.932896,27.011986 
	C43.932896,27.011986 43.776749,27.338623 43.531906,27.604441 
	C43.001480,28.062071 42.687119,28.145466 42.125374,28.115370 
	C41.615105,28.146385 41.359497,28.262020 40.878098,28.635963 
	C40.420940,28.895550 40.225636,28.976372 39.975960,28.715082 
	C39.402699,28.033148 38.883804,27.693325 38.372936,27.312729 
	C38.380962,27.271955 38.443245,27.326992 38.631424,26.996284 
	C38.874260,26.419863 38.928917,26.174147 39.171295,25.701731 
	C39.914299,25.307302 40.469574,25.139574 41.024853,24.971848 
z"/>
<path fill="#DE9C42" opacity="1.000000" stroke="none" 
	d="
M42.343979,28.120445 
	C42.687119,28.145466 43.001480,28.062071 43.518402,27.784958 
	C44.165394,30.184277 44.581051,32.668896 44.761108,35.576607 
	C44.525513,35.999699 44.078274,35.996048 44.078274,35.996048 
	C43.771362,35.207600 43.464451,34.419155 43.119888,32.981003 
	C42.797314,31.311764 42.512383,30.292231 42.126419,29.148531 
	C42.025387,29.024363 41.826427,28.777786 41.964561,28.620335 
	C42.102692,28.462883 42.343979,28.120445 42.343979,28.120445 
z"/>
<path fill="#DCA235" opacity="1.000000" stroke="none" 
	d="
M44.046974,36.370483 
	C44.078274,35.996048 44.525513,35.999699 44.748520,36.002323 
	C44.971527,36.004948 45.003181,36.499535 45.021172,36.746613 
	C45.026424,37.170433 45.013680,37.347176 44.908974,37.975906 
	C44.668152,38.663250 44.470539,38.845856 44.224186,38.975716 
	C44.154678,38.232117 44.085175,37.488514 44.046974,36.370483 
z"/>
<path fill="#DE9C42" opacity="1.000000" stroke="none" 
	d="
M43.997715,26.868187 
	C43.737656,26.858934 43.711002,26.672829 43.957188,26.431293 
	C44.061436,26.408918 44.062534,26.724386 43.997715,26.868187 
z"/>
<path fill="#E2BE60" opacity="1.000000" stroke="none" 
	d="
M13.032545,13.154117 
	C14.122864,13.140593 15.213182,13.127069 16.752098,13.353309 
	C17.200697,13.593071 17.234095,13.943744 16.986599,14.051502 
	C16.496124,14.417012 16.253145,14.674765 16.002224,15.196823 
	C15.994010,15.637412 15.993739,15.813696 15.603087,15.983288 
	C14.171565,15.971313 13.130424,15.966030 12.061808,15.710781 
	C12.011388,15.294744 11.988441,15.128673 11.958813,14.754396 
	C11.952131,14.546192 11.943751,14.129652 11.958986,14.092474 
	C11.974222,14.055295 12.000110,13.979221 12.208819,13.891176 
	C12.686282,13.647200 12.891288,13.430861 13.032545,13.154117 
z"/>
<path fill="#CF773E" opacity="1.000000" stroke="none" 
	d="
M17.234095,13.943744 
	C17.234095,13.943744 17.200697,13.593071 17.155006,13.423645 
	C17.109314,13.254220 17.501181,13.054402 17.973398,13.046070 
	C18.618856,13.044117 18.792097,13.050498 19.219498,13.043352 
	C19.642168,13.009943 19.810678,12.990062 19.983921,13.358629 
	C19.951035,14.262829 19.913416,14.778580 19.644836,15.177698 
	C19.251806,15.002428 19.089739,14.943790 18.776844,14.677561 
	C18.162043,14.294560 17.698069,14.119152 17.234095,13.943744 
z"/>
<path fill="#E3B672" opacity="1.000000" stroke="none" 
	d="
M7.839046,14.105387 
	C8.055451,13.786429 8.271856,13.467472 8.746866,13.007843 
	C9.748825,12.919082 10.492179,12.970990 11.615784,13.274995 
	C11.996036,13.527091 12.000110,13.979221 12.000110,13.979221 
	C12.000110,13.979221 11.974222,14.055295 11.554087,14.066542 
	C10.035649,14.086987 8.937348,14.096188 7.839046,14.105387 
z"/>
<path fill="#E09F6A" opacity="1.000000" stroke="none" 
	d="
M19.979187,12.970181 
	C19.810678,12.990062 19.642168,13.009943 19.208870,12.659839 
	C18.931046,12.034847 18.918011,11.779842 18.904976,11.524837 
	C18.894415,11.354906 18.883852,11.184975 18.913620,10.761270 
	C18.953949,10.507496 19.389763,10.656565 19.666992,11.094372 
	C19.955877,12.011513 19.967531,12.490847 19.979187,12.970181 
z"/>
<path fill="#E6C088" opacity="1.000000" stroke="none" 
	d="
M12.208819,13.891176 
	C12.000110,13.979221 11.996036,13.527091 11.987713,13.301567 
	C12.157194,13.056948 12.334997,13.037852 12.772673,13.086436 
	C12.891288,13.430861 12.686282,13.647200 12.208819,13.891176 
z"/>
<path fill="#E0925B" opacity="1.000000" stroke="none" 
	d="
M18.674324,11.715732 
	C18.918011,11.779842 18.931046,12.034847 18.954708,12.673367 
	C18.792097,13.050498 18.618856,13.044117 18.188236,12.998993 
	C18.101795,12.609041 18.272734,12.257833 18.674324,11.715732 
z"/>
<path fill="#EAE84B" opacity="1.000000" stroke="none" 
	d="
M7.719612,14.204622 
	C8.937348,14.096188 10.035649,14.086987 11.538851,14.103720 
	C11.943751,14.129652 11.952131,14.546192 11.715680,14.782591 
	C11.241317,15.198165 11.003406,15.377339 10.765493,15.556515 
	C11.206757,15.691258 11.648019,15.826003 12.089281,15.960748 
	C13.130424,15.966030 14.171565,15.971313 15.604995,15.991137 
	C15.997282,16.005678 15.991035,16.021833 15.993290,16.418507 
	C15.997392,17.874914 15.999239,18.934649 15.798031,20.243889 
	C14.065012,21.600927 12.535049,22.708460 10.722343,23.865940 
	C10.249038,23.933908 10.058475,23.951929 9.611132,24.175661 
	C9.089315,24.732433 8.824281,25.083494 8.559246,25.434553 
	C7.913395,24.460615 7.267546,23.486677 6.340773,22.000370 
	C5.692251,20.989269 5.324652,20.490541 4.957054,19.991812 
	C4.957054,19.991812 5.007218,19.997095 5.037522,19.614172 
	C5.045516,18.146082 5.023205,17.060915 5.000895,15.975748 
	C5.000895,15.975748 5.005833,16.005737 5.328520,16.003529 
	C6.163162,15.590795 6.675117,15.180272 7.187073,14.769751 
	C7.270828,14.566501 7.408529,14.411203 7.719612,14.204622 
z"/>
<path fill="#E0AB7D" opacity="1.000000" stroke="none" 
	d="
M4.778164,15.987303 
	C5.023205,17.060915 5.045516,18.146082 5.026514,19.636864 
	C4.669974,18.952633 4.354745,17.862787 4.075706,16.409595 
	C4.111896,16.046249 4.555433,15.998858 4.778164,15.987303 
z"/>
<path fill="#E0AB7D" opacity="1.000000" stroke="none" 
	d="
M6.834572,14.739296 
	C6.675117,15.180272 6.163162,15.590795 5.313349,16.002645 
	C5.477683,15.572263 5.979877,15.140553 6.834572,14.739296 
z"/>
<path fill="#FCF3DF" opacity="1.000000" stroke="none" 
	d="
M17.028336,42.974209 
	C14.405327,43.847939 11.671186,47.264088 9.138535,42.315712 
	C8.990444,40.607960 8.992490,39.220402 8.993295,37.416481 
	C9.917567,36.021751 10.843080,35.043381 12.242349,33.930176 
	C12.716105,33.795338 13.050029,33.830799 13.115231,34.080910 
	C13.439554,34.544861 13.698675,34.758698 14.014009,35.265579 
	C14.375541,36.043373 14.680860,36.528122 15.021349,37.306572 
	C15.369125,38.069332 15.681731,38.538391 16.009693,39.261520 
	C16.074177,39.850449 16.123302,40.185307 16.182169,40.801750 
	C16.400700,41.383396 16.609491,41.683456 16.910324,42.222813 
	C17.011024,42.632809 17.019680,42.803509 17.028336,42.974209 
z"/>
<path fill="#E6D456" opacity="1.000000" stroke="none" 
	d="
M10.942461,28.551794 
	C10.028957,27.714769 9.115455,26.877745 8.653923,25.921619 
	C9.296206,25.857105 9.486516,25.911697 10.073301,26.001999 
	C10.983383,26.131386 11.496989,26.225061 12.160524,26.547785 
	C12.820662,27.514521 13.330871,28.252205 13.918530,29.268097 
	C14.038758,29.734018 14.081534,29.921732 14.120622,30.354759 
	C14.116933,30.600075 14.091670,31.090111 13.825930,31.056961 
	C13.382089,31.011402 13.203988,30.998993 12.980101,30.857996 
	C12.934313,30.729408 12.930464,30.456444 12.930464,30.456444 
	C12.930464,30.456444 12.660652,30.576519 12.660652,30.576519 
	C12.660652,30.576519 12.412720,30.415314 12.154922,30.015106 
	C11.578903,29.260529 11.260682,28.906162 10.942461,28.551794 
z"/>
<path fill="#DEBC48" opacity="1.000000" stroke="none" 
	d="
M13.050029,33.830799 
	C13.050029,33.830799 12.716105,33.795338 12.550468,33.775887 
	C12.341264,32.784233 12.297695,31.812033 12.592295,30.648138 
	C12.930464,30.456444 12.934313,30.729408 13.093417,31.084667 
	C13.522408,31.639040 13.792295,31.838152 14.068142,32.264668 
	C14.074101,32.492069 14.074799,32.947025 13.865097,33.046040 
	C13.383503,33.311752 13.181714,33.540333 13.050029,33.830799 
z"/>
<path fill="#E0AB7D" opacity="1.000000" stroke="none" 
	d="
M4.965017,20.334106 
	C5.324652,20.490541 5.692251,20.989269 6.120338,21.809761 
	C5.778213,21.646481 5.375597,21.161442 4.965017,20.334106 
z"/>
<path fill="#EBE355" opacity="1.000000" stroke="none" 
	d="
M9.676826,25.966290 
	C9.486516,25.911697 9.296206,25.857105 8.827707,25.693142 
	C8.549519,25.583771 8.573585,25.510666 8.566416,25.472610 
	C8.824281,25.083494 9.089315,24.732433 9.630975,24.512482 
	C9.830674,25.084490 9.753751,25.525391 9.676826,25.966290 
z"/>
<path fill="#DDC242" opacity="1.000000" stroke="none" 
	d="
M10.922251,29.001766 
	C11.260682,28.906162 11.578903,29.260529 12.151978,29.867664 
	C11.905233,29.897535 11.403638,29.674637 10.922251,29.001766 
z"/>
<path fill="#7C1908" opacity="1.000000" stroke="none" 
	d="
M38.324818,8.857796 
	C38.657677,8.920439 38.990540,8.983081 39.578648,9.058830 
	C39.840813,9.523081 39.847725,9.974225 39.563766,10.871857 
	C38.849312,11.545486 38.425724,11.772630 37.624725,11.999948 
	C36.492085,11.992690 35.736847,11.985256 35.032410,11.621743 
	C36.163742,10.463041 37.244278,9.660419 38.324818,8.857796 
z"/>
<path fill="#761805" opacity="1.000000" stroke="none" 
	d="
M38.002136,11.999771 
	C38.425724,11.772630 38.849312,11.545486 39.482414,11.200460 
	C39.993107,12.063964 40.294281,13.045350 40.602139,14.415878 
	C40.040714,14.865913 39.472610,14.926807 38.459160,14.629749 
	C38.009918,13.514457 38.006027,12.757113 38.002136,11.999771 
z"/>
<path fill="#D7952B" opacity="1.000000" stroke="none" 
	d="
M44.179184,39.353050 
	C44.470539,38.845856 44.668152,38.663250 44.899750,38.241554 
	C45.321770,39.769363 45.661057,41.483517 45.776447,43.596207 
	C45.552555,43.994743 45.114395,43.983757 45.114395,43.983757 
	C44.838467,43.489838 44.562538,42.995918 44.153061,42.252388 
	C44.057735,41.245316 44.095955,40.487850 44.179184,39.353050 
z"/>
<path fill="#D99F2E" opacity="1.000000" stroke="none" 
	d="
M45.077225,44.329552 
	C45.114395,43.983757 45.552555,43.994743 45.771591,43.997101 
	C46.019543,44.406956 46.048458,44.814453 46.083900,45.525330 
	C46.054512,46.060925 46.018600,46.293140 45.921677,46.874634 
	C45.587132,46.374390 45.313595,45.524868 45.077225,44.329552 
z"/>
<path fill="#E3D348" opacity="1.000000" stroke="none" 
	d="
M17.155769,43.145821 
	C17.019680,42.803509 17.011024,42.632809 16.963652,42.006355 
	C16.924936,41.550610 17.040569,41.119694 17.028255,40.726547 
	C17.031902,39.547062 17.047861,38.760723 17.264885,37.862831 
	C17.715067,37.554996 17.892221,37.307236 18.183941,36.879211 
	C18.607592,36.550262 18.776684,36.303486 18.924622,35.753471 
	C18.968035,35.322983 18.964569,35.149109 18.979832,34.983490 
	C18.998560,34.991741 18.972923,34.958973 19.203400,34.969124 
	C19.433876,34.979275 19.895191,34.988075 20.156792,34.900726 
	C20.899269,34.557655 21.380146,34.301933 21.996624,34.181396 
	C22.451078,34.241631 22.769934,34.166676 23.379105,34.085110 
	C24.056417,34.067337 24.443413,34.056171 24.875511,34.327934 
	C24.955742,34.798611 24.990870,34.986355 25.025997,35.174095 
	C24.616272,36.520184 24.206547,37.866272 23.569000,39.842289 
	C23.204889,41.648964 23.068598,42.825710 22.895699,43.950783 
	C22.859091,43.899105 22.735432,43.926506 22.428467,43.868988 
	C21.716745,43.902699 21.311991,43.993931 20.665520,44.097660 
	C20.423803,44.110161 19.945663,44.034584 19.956585,43.782631 
	C19.858746,43.246544 19.749983,42.962414 19.641220,42.678280 
	C19.389671,42.971684 19.138124,43.265087 18.806679,43.596981 
	C18.726780,43.635468 18.640205,43.790276 18.443058,43.812347 
	C18.245911,43.834419 17.862928,43.938068 17.862928,43.938068 
	C17.629412,43.768810 17.436171,43.561935 17.155769,43.145821 
z"/>
<path fill="#D18E32" opacity="1.000000" stroke="none" 
	d="
M17.892578,44.316784 
	C17.862928,43.938068 18.245911,43.834419 18.576599,44.141747 
	C18.967302,44.913658 19.027317,45.378239 19.061344,46.128429 
	C19.022726,46.604805 19.010094,46.795578 18.997459,46.986351 
	C18.830803,46.983070 18.664148,46.979790 18.247694,46.968048 
	C17.972672,46.204887 17.947449,45.450195 17.892578,44.316784 
z"/>
<path fill="#6D140B" opacity="1.000000" stroke="none" 
	d="
M38.263958,8.589380 
	C37.244278,9.660419 36.163742,10.463041 34.745522,11.604799 
	C33.714600,11.632438 33.021358,11.320943 32.433472,10.644501 
	C32.681316,10.070217 32.823807,9.860880 32.965549,9.622566 
	C32.964806,9.593590 32.991539,9.423046 32.768734,9.049147 
	C32.375172,8.440644 32.204418,8.206040 32.015457,7.981155 
	C31.997253,7.990873 32.037693,7.993648 32.274319,7.913210 
	C32.685287,7.548090 32.859631,7.263409 33.028091,6.974473 
	C33.022213,6.970220 33.046162,6.948391 33.046162,6.948391 
	C33.440144,6.844408 33.834129,6.740424 34.876633,6.792551 
	C36.301186,7.058080 37.077225,7.167499 37.853264,7.276917 
	C37.969875,7.624933 38.086487,7.972950 38.263958,8.589380 
z"/>
<path fill="#7C2516" opacity="1.000000" stroke="none" 
	d="
M28.266239,2.512255 
	C29.033272,3.037713 29.754263,3.844862 30.863976,4.828824 
	C31.252699,5.005637 31.495747,4.924359 31.584724,5.156659 
	C32.106670,5.590074 32.539639,5.791188 32.930450,6.022560 
	C32.888294,6.052818 32.924362,6.150131 32.924362,6.150131 
	C32.924362,6.150131 33.053635,6.539125 33.049896,6.743758 
	C33.046162,6.948391 33.022213,6.970220 32.813980,7.092536 
	C32.330505,7.411792 32.141151,7.671391 32.037693,7.993648 
	C32.037693,7.993648 31.997253,7.990873 31.638870,7.957051 
	C30.527533,7.945162 29.774578,7.967096 29.018091,7.626447 
	C28.730419,6.348169 28.446283,5.432475 28.162146,4.516780 
	C28.181496,3.942502 28.200848,3.368223 28.266239,2.512255 
z"/>
<path fill="#FACCB5" opacity="1.000000" stroke="none" 
	d="
M31.124640,5.001176 
	C31.172508,4.594258 31.348434,4.191801 32.061459,3.669983 
	C33.054474,3.649256 33.510391,3.747891 33.966312,3.846525 
	C33.971565,4.030231 33.976822,4.213935 33.751827,4.704033 
	C33.521580,5.010427 33.053032,5.007793 32.791931,5.011183 
	C32.185799,4.984501 31.840773,4.954430 31.495747,4.924359 
	C31.495747,4.924359 31.252699,5.005637 31.124640,5.001176 
z"/>
<path fill="#D05E3D" opacity="1.000000" stroke="none" 
	d="
M37.804562,6.946669 
	C37.077225,7.167499 36.301186,7.058080 35.180588,6.755348 
	C35.809303,6.580163 36.782581,6.598292 37.804562,6.946669 
z"/>
<path fill="#C54D2D" opacity="1.000000" stroke="none" 
	d="
M33.815887,3.610286 
	C33.510391,3.747891 33.054474,3.649256 32.275574,3.414454 
	C31.952597,3.278287 32.112488,2.869581 32.240135,2.681216 
	C32.800343,2.786583 33.232903,3.080315 33.815887,3.610286 
z"/>
<path fill="#F1B39E" opacity="1.000000" stroke="none" 
	d="
M33.053032,5.007793 
	C33.053032,5.007793 33.521580,5.010427 33.753822,4.979696 
	C33.785229,5.249040 33.584389,5.549113 33.153954,5.999659 
	C32.924362,6.150131 32.888294,6.052818 32.940369,5.775635 
	C32.992447,5.498452 33.053032,5.007793 33.053032,5.007793 
z"/>
<path fill="#FDAEA0" opacity="1.000000" stroke="none" 
	d="
M21.992241,10.445465 
	C21.992239,10.445465 22.000969,10.499467 22.217512,10.331146 
	C22.676834,9.847539 22.919615,9.532253 23.147842,9.195097 
	C23.133291,9.173226 23.109507,9.130090 23.338726,9.154870 
	C23.567947,9.179650 24.031075,9.194732 24.229290,9.416512 
	C24.947283,10.413594 25.467056,11.188894 25.950100,12.220148 
	C25.849117,12.635872 25.784863,12.795641 25.360882,12.965130 
	C24.282606,13.012673 23.564056,13.050498 22.656288,13.054817 
	C22.467070,13.021312 22.094418,12.927310 22.088741,12.513277 
	C22.052790,11.547984 22.022516,10.996725 21.992241,10.445465 
z"/>
<path fill="#CB5D3D" opacity="1.000000" stroke="none" 
	d="
M21.622204,10.450363 
	C22.022516,10.996725 22.052790,11.547984 22.024149,12.759635 
	C21.947163,13.588586 21.929092,13.757146 21.894260,14.117588 
	C21.877501,14.309469 21.922237,14.692088 21.674057,14.900696 
	C21.337399,15.708428 21.248922,16.307554 21.117241,17.198494 
	C21.040472,17.684090 21.006907,17.877869 20.734167,18.051687 
	C20.494995,18.031727 20.059519,17.829817 20.033920,17.510437 
	C19.964148,16.558817 19.919973,15.926574 19.875799,15.294331 
	C19.913416,14.778580 19.951035,14.262829 19.983921,13.358629 
	C19.967531,12.490847 19.955877,12.011513 19.882336,11.176014 
	C20.297688,10.698319 20.774927,10.576791 21.622204,10.450363 
z"/>
<path fill="#DC734D" opacity="1.000000" stroke="none" 
	d="
M21.875874,5.346127 
	C22.899700,5.248414 23.819565,5.495274 24.907263,6.214100 
	C25.075094,6.686066 24.944500,7.007915 24.602175,7.005930 
	C23.801743,7.016456 23.343636,7.028967 22.588982,7.052086 
	C22.095648,7.082906 21.898859,7.103118 21.702070,7.123330 
	C21.725351,6.645787 21.748632,6.168244 21.875874,5.346127 
z"/>
<path fill="#DA6D47" opacity="1.000000" stroke="none" 
	d="
M23.162395,9.216969 
	C22.919615,9.532253 22.676834,9.847539 22.192705,10.342047 
	C21.871687,10.268066 21.792021,10.014864 22.095623,9.411420 
	C22.706726,9.113108 22.934559,9.165037 23.162395,9.216969 
z"/>
<path fill="#E78469" opacity="1.000000" stroke="none" 
	d="
M21.655399,7.314775 
	C21.898859,7.103118 22.095648,7.082906 22.604004,7.265955 
	C22.915569,7.469216 22.902157,7.898519 22.607548,7.905262 
	C22.116720,7.902337 21.920500,7.892668 21.724281,7.883000 
	C21.724281,7.883000 21.608727,7.506219 21.655399,7.314775 
z"/>
<path fill="#DC734D" opacity="1.000000" stroke="none" 
	d="
M21.695829,8.156626 
	C21.920500,7.892668 22.116720,7.902337 22.659243,8.213813 
	C23.040201,8.720444 23.074854,8.925266 23.109507,9.130090 
	C23.109507,9.130090 23.133291,9.173226 23.147842,9.195097 
	C22.934559,9.165037 22.706726,9.113108 22.130421,9.014784 
	C21.743761,8.789011 21.705570,8.609631 21.695829,8.156626 
z"/>
<path fill="#FCA69F" opacity="1.000000" stroke="none" 
	d="
M24.944500,7.007915 
	C24.944500,7.007915 25.075094,6.686066 25.111301,6.518290 
	C25.944994,5.853168 26.742476,5.355823 27.851053,4.687628 
	C28.446283,5.432475 28.730419,6.348169 29.026480,7.999440 
	C29.044243,9.730740 29.050083,10.726462 28.799532,11.820127 
	C28.366726,11.965840 28.190308,12.013612 27.677935,12.018059 
	C26.890263,11.971221 26.438547,11.967709 25.986832,11.964195 
	C25.467056,11.188894 24.947283,10.413594 24.320915,9.131443 
	C24.457714,8.085701 24.701107,7.546807 24.944500,7.007915 
z"/>
<path fill="#CE913B" opacity="1.000000" stroke="none" 
	d="
M19.024498,47.285599 
	C19.010094,46.795578 19.022726,46.604805 19.267723,46.165024 
	C19.500090,45.916016 19.919363,45.949169 20.198551,45.969307 
	C20.663836,46.003242 20.849934,46.017044 21.018444,46.234756 
	C21.000856,46.438663 20.967054,46.846600 20.739403,47.048260 
	C20.357714,47.822010 20.203672,48.394104 20.049631,48.966194 
	C19.716934,48.505745 19.384237,48.045300 19.024498,47.285599 
z"/>
<path fill="#E4C750" opacity="1.000000" stroke="none" 
	d="
M20.273594,48.911362 
	C20.203672,48.394104 20.357714,47.822010 20.801996,47.418819 
	C21.141535,47.832432 21.190828,48.077145 21.240124,48.321857 
	C21.042040,48.568756 20.794519,48.746979 20.273594,48.911362 
z"/>
<path fill="#DFB938" opacity="1.000000" stroke="none" 
	d="
M21.432510,48.288025 
	C21.190828,48.077145 21.141535,47.832432 21.029648,47.217159 
	C20.967054,46.846600 21.000856,46.438663 21.276302,46.396324 
	C21.735264,46.920444 21.918779,47.486900 22.068310,48.082329 
	C22.034328,48.111305 22.011457,48.197643 22.011457,48.197643 
	C22.011457,48.197643 21.624895,48.254192 21.432510,48.288025 
z"/>
<path fill="#D38E23" opacity="1.000000" stroke="none" 
	d="
M22.987289,49.029541 
	C22.690508,48.936825 22.450481,48.776302 22.130859,48.376968 
	C22.011457,48.197643 22.034328,48.111305 22.270363,48.187401 
	C22.752054,48.460396 22.928646,48.706821 23.036175,49.002769 
	C23.036175,49.002769 23.004234,49.021206 22.987289,49.029541 
z"/>
<path fill="#D38E23" opacity="1.000000" stroke="none" 
	d="
M25.955576,49.745338 
	C26.082859,49.950935 25.599129,49.976814 25.358185,49.981861 
	C25.117241,49.986908 25.049389,49.538239 25.024685,49.313530 
	C25.341307,49.119312 25.617409,49.269619 25.955576,49.745338 
z"/>
<path fill="#D18E32" opacity="1.000000" stroke="none" 
	d="
M23.263878,48.825928 
	C22.928646,48.706821 22.752054,48.460396 22.304344,48.158424 
	C21.918779,47.486900 21.735264,46.920444 21.293892,46.192417 
	C20.849934,46.017044 20.663836,46.003242 20.316231,45.731316 
	C20.405561,45.010509 20.656399,44.547836 20.907238,44.085159 
	C21.311991,43.993931 21.716745,43.902699 22.509892,44.210457 
	C23.271919,45.416443 23.645554,46.223438 24.019188,47.030430 
	C23.843319,47.569981 23.667450,48.109535 23.263878,48.825928 
z"/>
<path fill="#D38E23" opacity="1.000000" stroke="none" 
	d="
M24.264812,47.011627 
	C23.645554,46.223438 23.271919,45.416443 22.816856,44.267979 
	C22.735432,43.926506 22.859091,43.899105 23.136585,43.836880 
	C23.591574,43.777840 23.769068,43.781029 23.946562,43.784214 
	C24.163113,44.362419 24.379663,44.940624 24.809097,45.745327 
	C25.021978,45.971825 25.004322,46.457123 25.002375,46.699234 
	C25.000427,46.941349 24.510437,46.992821 24.264812,47.011627 
z"/>
<path fill="#F3F15B" opacity="1.000000" stroke="none" 
	d="
M42.227455,29.272699 
	C42.512383,30.292231 42.797314,31.311764 43.070366,32.666496 
	C41.943581,32.992329 40.828667,32.982960 39.293858,32.939499 
	C38.753456,32.319313 38.632946,31.733221 38.316830,30.765989 
	C38.121223,30.384850 38.126125,30.065533 38.455822,30.135590 
	C39.223495,30.163584 39.661469,30.121523 40.389183,30.064104 
	C41.195095,29.790064 41.711277,29.531382 42.227455,29.272699 
z"/>
<path fill="#E8A248" opacity="1.000000" stroke="none" 
	d="
M37.051064,34.668747 
	C36.454060,34.709141 35.985561,34.491699 35.278580,34.174057 
	C35.821316,33.686131 36.602539,33.298401 37.734573,32.918777 
	C37.783443,33.421562 37.481506,33.916237 37.051064,34.668747 
z"/>
<path fill="#841402" opacity="1.000000" stroke="none" 
	d="
M30.671705,31.466578 
	C30.671705,31.466578 30.283911,31.705105 29.811607,31.814562 
	C28.906876,31.987869 28.474447,32.051723 27.715405,31.995331 
	C26.939264,31.760235 26.489740,31.645378 25.906466,31.414473 
	C25.499655,31.453661 25.226591,31.608900 24.635504,31.837227 
	C23.883030,31.901056 23.448584,31.891798 22.999516,31.920387 
	C22.984896,31.958231 23.056231,31.996975 23.005697,31.740395 
	C22.744587,31.213190 22.534012,30.942564 22.497818,30.240120 
	C22.739489,29.193806 22.806778,28.579309 23.219746,27.924242 
	C24.026413,27.883587 24.487406,27.883501 25.273434,28.016827 
	C26.064539,28.155397 26.530603,28.160563 27.208925,28.267242 
	C27.421181,28.368761 27.873308,28.481321 27.873308,28.481321 
	C27.873308,28.481321 28.339191,28.477539 28.475609,28.701702 
	C28.725094,29.059357 28.838158,29.192848 29.125214,29.504936 
	C29.609541,29.807940 29.919878,29.932346 30.328503,30.412994 
	C30.508429,31.001680 30.590067,31.234129 30.671705,31.466578 
z"/>
<path fill="#FFC88D" opacity="1.000000" stroke="none" 
	d="
M38.126125,30.065533 
	C38.126125,30.065533 38.121223,30.384850 38.107838,30.541500 
	C37.040253,30.802423 35.986053,30.906694 34.530815,30.733723 
	C34.141239,30.262890 34.152702,30.069298 34.244804,29.554165 
	C34.556458,28.155378 34.787472,27.078135 35.083138,25.798428 
	C35.147785,25.595964 35.245491,25.182146 35.507278,25.180363 
	C36.119102,25.162462 36.469147,25.146345 37.020485,25.286144 
	C37.378468,25.507353 37.535152,25.572645 37.658707,25.733791 
	C37.625580,25.829643 37.758675,25.982700 37.704910,26.270248 
	C37.915180,26.814196 38.179214,27.070595 38.443245,27.326992 
	C38.443245,27.326992 38.380962,27.271955 38.287853,27.565022 
	C38.171871,28.593901 38.148998,29.329718 38.126125,30.065533 
z"/>
<path fill="#FD8459" opacity="1.000000" stroke="none" 
	d="
M35.018490,26.000891 
	C34.787472,27.078135 34.556458,28.155378 33.942490,29.499348 
	C33.364922,29.704615 33.170303,29.643156 32.975689,29.581699 
	C32.975689,29.581699 32.655224,29.634670 32.655224,29.634670 
	C32.655224,29.634670 32.440266,29.390579 32.092201,29.191856 
	C31.479977,29.006756 31.215816,29.020378 30.617393,29.078209 
	C29.839161,29.190393 29.395191,29.258366 28.951221,29.326340 
	C28.838158,29.192848 28.725094,29.059357 28.742914,28.538334 
	C28.912531,27.437878 28.951263,26.724949 29.420298,26.008610 
	C31.573231,26.003761 33.295860,26.002325 35.018490,26.000891 
z"/>
<path fill="#FAAC7F" opacity="1.000000" stroke="none" 
	d="
M23.014137,31.882542 
	C23.448584,31.891798 23.883030,31.901056 24.919403,31.835875 
	C25.694290,31.684464 25.867252,31.607494 26.040215,31.530523 
	C26.489740,31.645378 26.939264,31.760235 27.835526,32.195797 
	C28.494688,32.757515 28.753439,32.928425 29.058514,33.029228 
	C28.592485,33.342285 28.126455,33.655346 27.342476,33.983429 
	C27.024525,33.998459 26.977688,33.965488 26.893486,33.817947 
	C26.552261,33.754818 26.295240,33.839230 25.735645,33.947796 
	C25.232185,33.996304 25.031298,34.020657 24.830408,34.045006 
	C24.443413,34.056171 24.056417,34.067337 23.305670,33.718937 
	C22.965990,32.867096 22.990063,32.374817 23.014137,31.882542 
z"/>
<path fill="#B15B33" opacity="1.000000" stroke="none" 
	d="
M28.845383,36.170517 
	C28.861300,36.655430 28.651932,36.851330 28.155567,37.052322 
	C27.957907,37.152847 27.486530,37.050121 27.105637,36.812832 
	C26.574448,36.500889 26.424152,36.426231 26.273859,36.351570 
	C26.273859,36.351570 26.483984,36.086033 26.650028,36.055096 
	C27.447191,36.008419 28.078310,35.992676 28.845383,36.170517 
z"/>
<path fill="#F29A72" opacity="1.000000" stroke="none" 
	d="
M24.875511,34.327938 
	C25.031298,34.020657 25.232185,33.996304 25.969862,33.966507 
	C26.506653,33.961067 26.977688,33.965488 26.977688,33.965488 
	C26.977688,33.965488 27.024525,33.998459 27.052149,34.009293 
	C27.023529,34.284752 26.967285,34.549377 26.784925,35.200607 
	C26.296986,35.495029 25.935158,35.402843 25.299664,35.242378 
	C24.990870,34.986355 24.955742,34.798611 24.875511,34.327938 
z"/>
<path fill="#EFAD84" opacity="1.000000" stroke="none" 
	d="
M29.261103,32.915329 
	C28.753439,32.928425 28.494688,32.757515 28.162140,32.316040 
	C28.474447,32.051723 28.906876,31.987869 29.663414,31.987356 
	C29.900169,32.361839 29.725559,32.612083 29.261103,32.915329 
z"/>
<path fill="#E5563B" opacity="1.000000" stroke="none" 
	d="
M31.083206,31.423807 
	C30.590067,31.234129 30.508429,31.001680 30.650703,30.430571 
	C31.088860,30.057417 31.303104,30.022924 31.777897,29.891251 
	C32.204617,29.711863 32.370785,29.629658 32.536949,29.547455 
	C32.189537,30.158649 31.842121,30.769844 31.083206,31.423807 
z"/>
<path fill="#E16A46" opacity="1.000000" stroke="none" 
	d="
M32.870876,29.961681 
	C33.170303,29.643156 33.364922,29.704615 33.861855,29.820889 
	C34.152702,30.069298 34.141239,30.262890 34.134544,30.747559 
	C33.681564,30.806311 33.223812,30.573986 32.870876,29.961681 
z"/>
<path fill="#E16A46" opacity="1.000000" stroke="none" 
	d="
M32.595367,29.430431 
	C32.370785,29.629658 32.204617,29.711863 31.636650,29.652431 
	C31.140453,29.351864 31.046055,29.192932 30.951656,29.033998 
	C31.215816,29.020378 31.479977,29.006756 32.139523,29.036764 
	C32.534908,29.080395 32.653786,29.313410 32.595367,29.430431 
z"/>
<path fill="#442502" opacity="1.000000" stroke="none" 
	d="
M24.087433,43.587410 
	C23.769068,43.781029 23.591574,43.777840 23.173195,43.888557 
	C23.068598,42.825710 23.204889,41.648964 23.574711,40.197987 
	C24.197294,40.463371 24.586344,41.002991 25.020954,41.888111 
	C24.787111,42.619278 24.507708,43.004944 24.087433,43.587410 
z"/>
<path fill="#712204" opacity="1.000000" stroke="none" 
	d="
M26.296085,36.481606 
	C26.424152,36.426231 26.574448,36.500889 26.866177,36.783718 
	C26.713028,36.972549 26.483261,36.845795 26.296085,36.481606 
z"/>
<path fill="#761805" opacity="1.000000" stroke="none" 
	d="
M37.981815,18.123222 
	C38.493519,18.672642 39.005219,19.222061 39.777222,19.890444 
	C40.037262,20.760296 40.037006,21.511185 39.728836,22.638279 
	C38.995319,23.011911 38.569721,23.009336 37.879616,22.990501 
	C37.439484,22.970409 37.263859,22.966579 37.050598,22.614500 
	C36.894024,21.818180 36.775078,21.370110 36.675999,20.638626 
	C36.615612,20.183273 36.535366,20.011330 36.552231,19.647018 
	C36.649342,19.454651 36.705914,19.027395 36.857300,18.794067 
	C37.012917,18.375364 37.017151,18.189989 37.124008,18.016663 
	C37.226631,18.028709 37.431778,18.053728 37.569923,18.066051 
	C37.708073,18.078375 37.981815,18.123222 37.981815,18.123222 
z"/>
<path fill="#611403" opacity="1.000000" stroke="none" 
	d="
M38.144127,23.006762 
	C38.569721,23.009336 38.995319,23.011911 39.741257,23.013735 
	C40.362869,23.475044 40.664139,23.937105 40.995132,24.685507 
	C40.469574,25.139574 39.914299,25.307302 38.865242,25.717436 
	C38.167198,25.967463 37.962936,25.975082 37.758675,25.982700 
	C37.758675,25.982700 37.625580,25.829643 37.782318,25.302267 
	C38.007412,24.185514 38.075768,23.596138 38.144127,23.006762 
z"/>
<path fill="#891A09" opacity="1.000000" stroke="none" 
	d="
M38.012543,17.735571 
	C37.981815,18.123222 37.708073,18.078375 37.445374,17.757975 
	C36.472622,16.618782 35.762577,15.799990 34.981907,14.774199 
	C34.557049,14.575624 34.202808,14.584047 33.635132,14.836428 
	C33.332108,15.277046 33.242531,15.473707 33.004234,15.700253 
	C32.647743,15.760925 32.448227,15.819811 32.277969,15.566519 
	C31.945776,14.691867 31.592585,14.157494 31.189713,13.457834 
	C31.140030,13.292548 30.985897,12.983686 30.956715,12.819732 
	C30.937368,12.402649 30.826277,12.225337 30.779806,11.939003 
	C31.419609,11.505925 31.873865,11.257686 32.328121,11.009447 
	C33.021358,11.320943 33.714600,11.632438 34.694725,11.960878 
	C35.736847,11.985256 36.492085,11.992690 37.624725,11.999947 
	C38.006027,12.757113 38.009918,13.514457 38.031845,14.650916 
	C38.047680,15.802662 38.045475,16.575291 38.012543,17.735571 
z"/>
<path fill="#761805" opacity="1.000000" stroke="none" 
	d="
M38.455822,30.135590 
	C38.148998,29.329718 38.171871,28.593901 38.279827,27.605793 
	C38.883804,27.693325 39.402699,28.033148 39.982140,28.971355 
	C40.061607,29.739649 40.080528,29.909555 40.099445,30.079464 
	C39.661469,30.121523 39.223495,30.163584 38.455822,30.135590 
z"/>
<path fill="#DE9C42" opacity="1.000000" stroke="none" 
	d="
M40.389183,30.064106 
	C40.080528,29.909555 40.061607,29.739649 40.036507,29.313467 
	C40.225636,28.976372 40.420940,28.895550 41.046764,28.722164 
	C41.477283,28.629602 41.826427,28.777786 41.826427,28.777786 
	C41.826427,28.777786 42.025387,29.024363 42.126419,29.148531 
	C41.711277,29.531382 41.195095,29.790064 40.389183,30.064106 
z"/>
<path fill="#761805" opacity="1.000000" stroke="none" 
	d="
M37.704910,26.270248 
	C37.962936,25.975082 38.167198,25.967463 38.677513,25.944136 
	C38.928917,26.174147 38.874260,26.419863 38.631424,26.996284 
	C38.179214,27.070595 37.915180,26.814196 37.704910,26.270248 
z"/>
<path fill="#761805" opacity="1.000000" stroke="none" 
	d="
M41.964561,28.620335 
	C41.826427,28.777786 41.477283,28.629602 41.308617,28.543400 
	C41.359497,28.262020 41.615105,28.146385 42.125374,28.115370 
	C42.343979,28.120445 42.102692,28.462883 41.964561,28.620335 
z"/>
<path fill="#E0925B" opacity="1.000000" stroke="none" 
	d="
M16.986599,14.051502 
	C17.698069,14.119152 18.162043,14.294560 18.500275,14.730060 
	C18.187128,15.003928 17.999727,15.017705 17.596558,15.068069 
	C17.380791,15.104656 16.945417,15.165202 16.715944,15.089589 
	C16.486471,15.013976 16.010168,14.932517 16.010168,14.932516 
	C16.253145,14.674765 16.496124,14.417012 16.986599,14.051502 
z"/>
<path fill="#EEE762" opacity="1.000000" stroke="none" 
	d="
M12.061808,15.710781 
	C11.648019,15.826003 11.206757,15.691258 10.765493,15.556515 
	C11.003406,15.377339 11.241317,15.198165 11.722361,14.990796 
	C11.988441,15.128673 12.011388,15.294744 12.061808,15.710781 
z"/>
<path fill="#EADD60" opacity="1.000000" stroke="none" 
	d="
M16.002224,15.196823 
	C16.010168,14.932517 16.486471,15.013976 16.601913,15.274466 
	C16.516418,15.758609 16.274313,15.920902 15.991035,16.021833 
	C15.991035,16.021833 15.997282,16.005678 15.995375,15.997829 
	C15.993739,15.813696 15.994010,15.637412 16.002224,15.196823 
z"/>
<path fill="#925920" opacity="1.000000" stroke="none" 
	d="
M17.812325,15.031481 
	C17.999727,15.017705 18.187128,15.003928 18.651100,14.937653 
	C19.089739,14.943790 19.251806,15.002428 19.644836,15.177698 
	C19.919973,15.926574 19.964148,16.558817 19.695267,17.464594 
	C19.163033,17.675526 18.943851,17.612925 18.471750,17.408798 
	C18.083326,16.522009 17.947826,15.776745 17.812325,15.031481 
z"/>
<path fill="#E6DF49" opacity="1.000000" stroke="none" 
	d="
M13.841080,28.989889 
	C13.330871,28.252205 12.820662,27.514521 12.108847,26.206535 
	C11.606522,25.029488 11.305804,24.422741 11.005086,23.815992 
	C12.535049,22.708460 14.065012,21.600927 16.025879,20.158298 
	C17.128922,20.217674 17.801060,20.612148 18.610781,21.170574 
	C18.748363,21.334524 18.850372,21.750311 18.870224,21.755201 
	C18.890074,21.760092 18.862125,21.799089 18.642817,22.006021 
	C18.263466,22.782784 18.103422,23.352615 17.758812,24.201571 
	C17.010939,25.640722 16.447630,26.800749 15.582691,27.977676 
	C14.801066,28.326349 14.321074,28.658119 13.841080,28.989889 
z"/>
<path fill="#EBE355" opacity="1.000000" stroke="none" 
	d="
M18.473198,21.006622 
	C17.801060,20.612148 17.128922,20.217674 16.228935,19.908792 
	C15.999239,18.934649 15.997392,17.874914 15.993290,16.418507 
	C16.274313,15.920902 16.516418,15.758609 16.831387,15.350079 
	C16.945417,15.165202 17.380791,15.104656 17.596558,15.068069 
	C17.947826,15.776745 18.083326,16.522009 18.296234,17.816553 
	C18.406826,19.246096 18.440012,20.126360 18.473198,21.006622 
z"/>
<path fill="#D6AF2F" opacity="1.000000" stroke="none" 
	d="
M10.722343,23.865940 
	C11.305804,24.422741 11.606522,25.029488 11.958918,25.977486 
	C11.496989,26.225061 10.983383,26.131386 10.073301,26.001999 
	C9.753751,25.525391 9.830674,25.084490 9.887755,24.306770 
	C10.058475,23.951929 10.249038,23.933908 10.722343,23.865940 
z"/>
<path fill="#CE913B" opacity="1.000000" stroke="none" 
	d="
M14.986177,37.012871 
	C14.680860,36.528122 14.375541,36.043373 14.055421,35.297798 
	C14.040620,35.036972 14.138319,35.001030 14.356668,34.996891 
	C14.575019,34.992752 15.013215,34.977219 15.258520,34.976288 
	C15.503826,34.975353 15.994409,34.981010 15.991798,35.242798 
	C15.983044,35.679005 15.976901,35.853428 15.760920,36.142796 
	C15.278250,36.446209 15.089949,36.697922 14.986177,37.012871 
z"/>
<path fill="#CA915A" opacity="1.000000" stroke="none" 
	d="
M15.021349,37.306572 
	C15.089949,36.697922 15.278250,36.446209 15.766790,36.142426 
	C15.982501,36.027115 15.978904,36.040791 15.987926,36.383537 
	C16.038500,37.183548 16.080051,37.640812 16.098125,38.326591 
	C16.074648,38.555099 15.994336,39.007454 15.994337,39.007454 
	C15.681731,38.538391 15.369125,38.069332 15.021349,37.306572 
z"/>
<path fill="#DEBD4F" opacity="1.000000" stroke="none" 
	d="
M13.115231,34.080910 
	C13.181714,33.540333 13.383503,33.311752 14.083288,33.017181 
	C14.511181,32.889313 14.952995,32.865063 14.963816,33.158806 
	C14.974686,33.647472 14.974733,33.842396 14.775293,34.140068 
	C14.317386,34.430565 14.171556,34.683300 14.138319,35.001030 
	C14.138319,35.001030 14.040620,35.036972 13.999208,35.004753 
	C13.698675,34.758698 13.439554,34.544861 13.115231,34.080910 
z"/>
<path fill="#C59030" opacity="1.000000" stroke="none" 
	d="
M16.009693,39.261520 
	C15.994336,39.007454 16.074648,38.555099 16.296135,38.302166 
	C16.517620,38.049232 16.918848,38.041809 16.956923,38.028893 
	C16.994997,38.015976 17.063820,37.974388 17.063820,37.974388 
	C17.047861,38.760723 17.031902,39.547062 16.823730,40.557579 
	C16.478489,40.694561 16.325459,40.607365 16.172428,40.520168 
	C16.123302,40.185307 16.074177,39.850449 16.009693,39.261520 
z"/>
<path fill="#F8E9D1" opacity="1.000000" stroke="none" 
	d="
M16.182169,40.801750 
	C16.325459,40.607365 16.478489,40.694561 16.836044,40.950726 
	C17.040569,41.119694 16.924936,41.550610 16.871609,41.767067 
	C16.609491,41.683456 16.400700,41.383396 16.182169,40.801750 
z"/>
<path fill="#D8B33D" opacity="1.000000" stroke="none" 
	d="
M13.918531,29.268097 
	C14.321074,28.658119 14.801066,28.326349 15.958612,27.991720 
	C17.136261,27.999256 17.636358,28.009651 18.124783,28.390457 
	C18.058599,29.499895 18.004087,30.238920 17.722731,31.161415 
	C17.333052,31.893957 17.170218,32.443027 16.780289,32.868523 
	C16.356438,32.464676 16.159681,32.184402 15.836197,31.669167 
	C15.181084,30.992617 14.652697,30.551031 14.124310,30.109444 
	C14.081534,29.921732 14.038758,29.734018 13.918531,29.268097 
z"/>
<path fill="#CB9C35" opacity="1.000000" stroke="none" 
	d="
M14.120621,30.354759 
	C14.652697,30.551031 15.181084,30.992617 15.630772,31.789062 
	C15.285806,32.329010 15.086113,32.569393 14.952995,32.865063 
	C14.952995,32.865063 14.511181,32.889313 14.292990,32.918167 
	C14.074799,32.947025 14.074101,32.492069 14.079964,32.027725 
	C14.085826,31.563381 14.091670,31.090111 14.091670,31.090111 
	C14.091670,31.090111 14.116933,30.600075 14.120621,30.354759 
z"/>
<path fill="#DEBD4F" opacity="1.000000" stroke="none" 
	d="
M13.825930,31.056961 
	C14.091670,31.090111 14.085826,31.563381 14.074003,31.800323 
	C13.792295,31.838152 13.522408,31.639040 13.139204,31.213255 
	C13.203988,30.998993 13.382089,31.011402 13.825930,31.056961 
z"/>
<path fill="#BF8027" opacity="1.000000" stroke="none" 
	d="
M17.949575,30.977943 
	C18.004087,30.238920 18.058599,29.499895 18.357788,28.193256 
	C19.394754,26.693834 20.187042,25.762026 21.080563,25.059414 
	C21.181797,25.288609 21.355894,25.754719 21.358284,26.009474 
	C21.598221,26.485268 21.835772,26.706305 22.167366,27.127716 
	C22.444023,27.561119 22.648243,27.773359 22.874067,27.964811 
	C22.806778,28.579309 22.739489,29.193806 22.482121,30.396198 
	C22.546774,31.321718 22.801502,31.659348 23.056231,31.996975 
	C23.056231,31.996975 22.984896,31.958231 22.999516,31.920387 
	C22.990063,32.374817 22.965990,32.867096 23.015354,33.725544 
	C22.769934,34.166676 22.451078,34.241631 21.850096,33.924889 
	C21.042061,33.287025 20.516153,33.040871 19.763874,32.721313 
	C19.349308,33.418270 19.161116,34.188622 18.972923,34.958973 
	C18.972923,34.958973 18.998560,34.991741 18.739439,34.986198 
	C18.480318,34.980656 17.998745,34.984196 17.999336,34.990112 
	C17.999929,34.996025 17.993782,34.995632 18.017448,34.729782 
	C18.047592,34.286087 18.054070,34.108238 18.043934,33.697903 
	C18.027323,33.465416 18.004213,32.999836 17.992735,32.662987 
	C17.970695,31.876741 17.960135,31.427343 17.949575,30.977943 
z"/>
<path fill="#C59030" opacity="1.000000" stroke="none" 
	d="
M15.976630,36.027481 
	C15.976901,35.853428 15.983044,35.679005 16.233727,35.204865 
	C16.478266,34.905148 16.963396,34.838345 17.219852,34.887276 
	C17.648798,34.956009 17.821289,34.975819 17.993782,34.995632 
	C17.993782,34.995632 17.999929,34.996025 18.103043,35.196220 
	C18.374805,35.661411 18.598667,35.865967 18.877743,36.010090 
	C18.776684,36.303486 18.607592,36.550262 17.938168,36.883644 
	C17.505871,37.016869 17.014509,37.035450 16.899384,36.815300 
	C16.579435,36.317917 16.310984,36.133129 15.978904,36.040791 
	C15.978904,36.040791 15.982501,36.027115 15.976630,36.027481 
z"/>
<path fill="#D0A62F" opacity="1.000000" stroke="none" 
	d="
M19.203400,34.969124 
	C19.161116,34.188622 19.349308,33.418270 19.762177,33.089779 
	C19.956299,34.017117 19.925745,34.502598 19.895191,34.988075 
	C19.895191,34.988075 19.433876,34.979275 19.203400,34.969124 
z"/>
<path fill="#E7D659" opacity="1.000000" stroke="none" 
	d="
M20.156792,34.900726 
	C19.925745,34.502598 19.956299,34.017117 19.988548,33.163177 
	C20.516153,33.040871 21.042061,33.287025 21.714497,33.789696 
	C21.380146,34.301933 20.899269,34.557655 20.156792,34.900726 
z"/>
<path fill="#AF7F21" opacity="1.000000" stroke="none" 
	d="
M20.665520,44.097660 
	C20.656399,44.547836 20.405561,45.010509 20.037043,45.711174 
	C19.919363,45.949169 19.500090,45.916016 19.293711,45.879417 
	C19.027317,45.378239 18.967302,44.913658 18.773746,44.119675 
	C18.640205,43.790276 18.726780,43.635468 19.053040,43.762398 
	C19.568087,43.937748 19.756876,43.986168 19.945663,44.034584 
	C19.945663,44.034584 20.423803,44.110161 20.665520,44.097660 
z"/>
<path fill="#CFA833" opacity="1.000000" stroke="none" 
	d="
M19.956585,43.782631 
	C19.756876,43.986168 19.568087,43.937748 19.132936,43.723907 
	C19.138124,43.265087 19.389671,42.971684 19.641220,42.678280 
	C19.749983,42.962414 19.858746,43.246544 19.956585,43.782631 
z"/>
<path fill="#D0A62F" opacity="1.000000" stroke="none" 
	d="
M18.924622,35.753471 
	C18.598667,35.865967 18.374805,35.661411 18.102451,35.190308 
	C17.998745,34.984196 18.480318,34.980656 18.720711,34.977943 
	C18.964569,35.149109 18.968035,35.322983 18.924622,35.753471 
z"/>
<path fill="#E5D94D" opacity="1.000000" stroke="none" 
	d="
M17.014509,37.035450 
	C17.014509,37.035450 17.505871,37.016869 17.751644,37.012436 
	C17.892221,37.307236 17.715067,37.554996 17.264885,37.862831 
	C17.063820,37.974388 16.994997,38.015976 16.990044,37.777939 
	C16.994896,37.371754 17.004702,37.203602 17.014509,37.035450 
z"/>
<path fill="#FCC1BC" opacity="1.000000" stroke="none" 
	d="
M32.433472,10.644501 
	C31.873865,11.257686 31.419609,11.505925 30.396599,11.832981 
	C29.570536,11.848595 29.313231,11.785391 29.055923,11.722186 
	C29.050083,10.726462 29.044243,9.730740 29.030014,8.362022 
	C29.774578,7.967096 30.527533,7.945162 31.657074,7.947333 
	C32.204418,8.206040 32.375172,8.440644 32.669655,9.096369 
	C32.793381,9.517489 32.966293,9.651542 32.966293,9.651542 
	C32.823807,9.860880 32.681316,10.070217 32.433472,10.644501 
z"/>
<path fill="#891A09" opacity="1.000000" stroke="none" 
	d="
M32.965549,9.622566 
	C32.966293,9.651542 32.793381,9.517489 32.892460,9.470268 
	C32.991539,9.423046 32.964806,9.593590 32.965549,9.622566 
z"/>
<path fill="#D05E3D" opacity="1.000000" stroke="none" 
	d="
M32.274319,7.913210 
	C32.141151,7.671391 32.330505,7.411792 32.819862,7.096789 
	C32.859631,7.263409 32.685287,7.548090 32.274319,7.913210 
z"/>
<path fill="#FCDAC2" opacity="1.000000" stroke="none" 
	d="
M32.791931,5.011183 
	C33.053032,5.007793 32.992447,5.498452 32.982529,5.745378 
	C32.539639,5.791188 32.106670,5.590074 31.584724,5.156659 
	C31.840773,4.954430 32.185799,4.984501 32.791931,5.011183 
z"/>
<path fill="#FA9E94" opacity="1.000000" stroke="none" 
	d="
M20.973339,18.071648 
	C21.006907,17.877869 21.040472,17.684090 21.336555,16.989605 
	C21.706797,15.889963 21.814516,15.291026 21.922237,14.692088 
	C21.922237,14.692088 21.877501,14.309469 22.097023,14.034573 
	C22.567865,13.594952 22.744186,13.371167 22.845509,13.088322 
	C23.564056,13.050498 24.282606,13.012673 25.433105,13.213183 
	C25.887474,13.621733 25.909889,13.791948 25.678181,14.162864 
	C24.927616,15.567845 24.431177,16.772129 23.726486,18.211182 
	C22.939478,18.668524 22.360722,18.891098 21.650936,18.936535 
	C21.358896,18.513319 21.176706,18.284069 20.973339,18.071648 
z"/>
<path fill="#FA5C4D" opacity="1.000000" stroke="none" 
	d="
M25.932308,13.962164 
	C25.909889,13.791948 25.887474,13.621733 25.792835,13.203464 
	C25.784863,12.795641 25.849117,12.635872 25.950100,12.220148 
	C26.438547,11.967709 26.890263,11.971221 27.746569,12.197536 
	C28.264563,12.657400 28.427002,12.853946 28.741997,13.343822 
	C28.900743,13.903130 28.955969,14.128588 29.011261,14.649796 
	C28.979805,15.339946 28.948280,15.734348 28.690247,16.246614 
	C28.051180,16.664286 27.638622,16.964092 27.147385,16.894188 
	C26.689905,15.670372 26.311106,14.816268 25.932308,13.962164 
z"/>
<path fill="#DA6D47" opacity="1.000000" stroke="none" 
	d="
M24.602175,7.005930 
	C24.701107,7.546807 24.457714,8.085701 24.122698,8.909662 
	C24.031075,9.194732 23.567947,9.179650 23.338726,9.154870 
	C23.074854,8.925266 23.040201,8.720444 22.953852,8.207069 
	C22.902157,7.898519 22.915569,7.469216 22.900549,7.255347 
	C23.343636,7.028967 23.801743,7.016456 24.602175,7.005930 
z"/>
<path fill="#E78469" opacity="1.000000" stroke="none" 
	d="
M22.656288,13.054817 
	C22.744186,13.371167 22.567865,13.594952 22.113785,13.842691 
	C21.929092,13.757146 21.947163,13.588586 22.029825,13.173668 
	C22.094418,12.927310 22.467070,13.021312 22.656288,13.054817 
z"/>
<path fill="#6C1E07" opacity="1.000000" stroke="none" 
	d="
M20.734167,18.051687 
	C21.176706,18.284069 21.358896,18.513319 21.616138,19.126900 
	C21.712366,19.494402 21.822796,19.865318 21.753014,20.115232 
	C21.674404,20.537905 21.665581,20.710661 21.453274,21.001404 
	C21.026188,21.350721 20.863352,21.618954 20.483452,21.915731 
	C20.027843,21.959665 19.850069,22.011953 19.587034,21.914349 
	C19.288733,21.593328 19.071598,21.588614 18.850372,21.750311 
	C18.850372,21.750311 18.748363,21.334524 18.610779,21.170574 
	C18.440012,20.126360 18.406826,19.246096 18.549156,17.958080 
	C18.943851,17.612925 19.163033,17.675526 19.720865,17.783974 
	C20.059519,17.829817 20.494995,18.031727 20.734167,18.051687 
z"/>
<path fill="#FDAEA0" opacity="1.000000" stroke="none" 
	d="
M21.674057,14.900696 
	C21.814516,15.291026 21.706797,15.889963 21.379761,16.697790 
	C21.248922,16.307554 21.337399,15.708428 21.674057,14.900696 
z"/>
<path fill="#F74E42" opacity="1.000000" stroke="none" 
	d="
M28.638477,13.009974 
	C28.427002,12.853946 28.264563,12.657400 28.082525,12.240860 
	C28.190308,12.013612 28.366726,11.965840 28.799534,11.820127 
	C29.313231,11.785391 29.570536,11.848595 30.211052,12.017820 
	C30.826277,12.225337 30.937368,12.402649 30.568356,12.806130 
	C29.685610,12.974314 29.162045,12.992144 28.638477,13.009974 
z"/>
<path fill="#FD7F57" opacity="1.000000" stroke="none" 
	d="
M26.996670,28.165726 
	C26.530603,28.160563 26.064539,28.155397 25.251310,27.726826 
	C24.591640,26.838707 24.279133,26.374001 23.973927,25.586103 
	C23.979939,24.829033 23.978645,24.395151 23.987926,23.981739 
	C23.998503,24.002209 23.959446,23.977509 24.228924,23.982910 
	C24.677799,23.985231 24.857201,23.982149 25.328505,24.016317 
	C26.074070,24.390471 26.527731,24.727375 26.986919,25.307007 
	C26.992445,25.549732 27.009583,26.035009 27.006687,26.389677 
	C27.001417,27.218140 26.999044,27.691933 26.996670,28.165726 
z"/>
<path fill="#FD9765" opacity="1.000000" stroke="none" 
	d="
M23.966623,25.909294 
	C24.279133,26.374001 24.591640,26.838707 24.926273,27.593416 
	C24.487406,27.883501 24.026413,27.883587 23.219746,27.924242 
	C22.648243,27.773359 22.444023,27.561119 22.151173,26.892067 
	C22.040934,26.456045 21.978912,25.986439 21.987137,25.992577 
	C21.995363,25.998714 21.992912,25.980164 22.322166,25.971210 
	C23.089821,25.944603 23.528223,25.926949 23.966623,25.909294 
z"/>
<path fill="#FE9162" opacity="1.000000" stroke="none" 
	d="
M27.208925,28.267244 
	C26.999044,27.691933 27.001417,27.218140 27.336597,26.378704 
	C28.109602,26.012714 28.549797,26.012369 28.989994,26.012022 
	C28.951263,26.724949 28.912531,27.437878 28.606495,28.314171 
	C28.339191,28.477539 27.873308,28.481321 27.873308,28.481321 
	C27.873308,28.481321 27.421181,28.368761 27.208925,28.267244 
z"/>
<path fill="#B21F09" opacity="1.000000" stroke="none" 
	d="
M30.617393,29.078209 
	C31.046055,29.192932 31.140453,29.351864 31.376099,29.749615 
	C31.303104,30.022924 31.088860,30.057417 30.552416,30.074329 
	C29.919878,29.932346 29.609541,29.807940 29.125214,29.504936 
	C29.395191,29.258366 29.839161,29.190393 30.617393,29.078209 
z"/>
<path fill="#FD9765" opacity="1.000000" stroke="none" 
	d="
M23.005697,31.740395 
	C22.801502,31.659348 22.546774,31.321718 22.307741,30.828014 
	C22.534012,30.942564 22.744587,31.213190 23.005697,31.740395 
z"/>
<path fill="#B03B24" opacity="1.000000" stroke="none" 
	d="
M25.906466,31.414473 
	C25.867252,31.607494 25.694290,31.684464 25.237429,31.762787 
	C25.226591,31.608900 25.499655,31.453661 25.906466,31.414473 
z"/>
<path fill="#FD7256" opacity="1.000000" stroke="none" 
	d="
M29.420298,26.008610 
	C28.549797,26.012369 28.109602,26.012714 27.339493,26.024036 
	C27.009583,26.035009 26.992445,25.549732 27.365362,25.275509 
	C28.570463,24.536041 29.402647,24.070799 30.447723,23.482555 
	C30.979824,23.156160 31.103674,22.868469 31.098255,22.274128 
	C31.228048,21.743141 31.222591,21.435734 31.400068,20.970669 
	C31.874603,20.480541 32.097042,20.149296 32.510887,19.668737 
	C33.172970,19.471874 33.643646,19.424324 34.137741,19.475277 
	C34.161160,19.573780 34.193974,19.773602 34.141266,20.187656 
	C34.474205,22.128523 34.859848,23.655334 35.245491,25.182146 
	C35.245491,25.182146 35.147785,25.595964 35.083138,25.798428 
	C33.295860,26.002325 31.573231,26.003761 29.420298,26.008610 
z"/>
<path fill="#FD7B54" opacity="1.000000" stroke="none" 
	d="
M35.507278,25.180363 
	C34.859848,23.655334 34.474205,22.128523 34.429756,20.249437 
	C35.168076,19.909687 35.565193,19.922215 36.038330,20.126705 
	C36.240063,20.569107 36.420662,20.770229 36.656136,20.922037 
	C36.775078,21.370110 36.894024,21.818180 36.951370,22.967531 
	C36.866245,24.155951 36.842716,24.643091 36.819187,25.130230 
	C36.469147,25.146345 36.119102,25.162462 35.507278,25.180363 
z"/>
<path fill="#9B220D" opacity="1.000000" stroke="none" 
	d="
M37.020485,25.286144 
	C36.842716,24.643091 36.866245,24.155951 36.989002,23.315781 
	C37.263859,22.966579 37.439484,22.970409 37.879616,22.990501 
	C38.075768,23.596138 38.007412,24.185514 37.815445,25.206413 
	C37.535152,25.572645 37.378468,25.507353 37.020485,25.286144 
z"/>
<path fill="#EFAD84" opacity="1.000000" stroke="none" 
	d="
M26.893486,33.817947 
	C26.977688,33.965488 26.506653,33.961067 26.272436,33.942352 
	C26.295240,33.839230 26.552261,33.754818 26.893486,33.817947 
z"/>
<path fill="#FC9A79" opacity="1.000000" stroke="none" 
	d="
M35.962315,19.934742 
	C35.565193,19.922215 35.168076,19.909687 34.482464,19.835381 
	C34.193974,19.773602 34.161160,19.573780 34.213112,18.975767 
	C33.894363,17.475292 33.523655,16.572830 33.152950,15.670367 
	C33.242531,15.473707 33.332108,15.277046 33.916370,14.997456 
	C34.624874,14.936749 34.838699,14.958972 35.052528,14.981196 
	C35.762577,15.799990 36.472622,16.618782 37.307224,17.745651 
	C37.431778,18.053728 37.226631,18.028709 36.958725,18.082884 
	C36.614246,18.226049 36.461445,18.329935 36.475376,18.401241 
	C36.517490,18.616747 36.624313,18.819607 36.705914,19.027395 
	C36.705914,19.027395 36.649342,19.454651 36.427887,19.662893 
	C36.206432,19.871136 35.962315,19.934742 35.962315,19.934742 
z"/>
<path fill="#FD7256" opacity="1.000000" stroke="none" 
	d="
M36.038330,20.126705 
	C35.962315,19.934742 36.206432,19.871136 36.330772,19.855261 
	C36.535366,20.011330 36.615612,20.183273 36.675999,20.638626 
	C36.420662,20.770229 36.240063,20.569107 36.038330,20.126705 
z"/>
<path fill="#FD7256" opacity="1.000000" stroke="none" 
	d="
M36.857300,18.794067 
	C36.624313,18.819607 36.517490,18.616747 36.475376,18.401241 
	C36.461445,18.329935 36.614246,18.226049 36.856102,18.070835 
	C37.017151,18.189989 37.012917,18.375364 36.857300,18.794067 
z"/>
<path fill="#D63020" opacity="1.000000" stroke="none" 
	d="
M33.004234,15.700253 
	C33.523655,16.572830 33.894363,17.475292 34.189693,18.877262 
	C33.643646,19.424324 33.172970,19.471874 32.290382,19.592247 
	C31.878471,19.665071 31.505072,19.935978 31.145000,19.906460 
	C30.498936,20.241486 30.212940,20.606028 29.875280,20.841013 
	C29.823616,20.711456 29.547915,20.753941 29.425934,20.739876 
	C29.303955,20.725811 29.053070,20.723314 28.951578,20.579796 
	C28.699343,20.255335 28.528688,20.095667 28.296337,19.651623 
	C27.956335,18.826466 27.658119,18.306955 27.342102,17.652557 
	C27.324303,17.517666 27.226065,17.263901 27.226065,17.263901 
	C27.638622,16.964092 28.051180,16.664286 29.108467,16.258007 
	C30.587788,16.069956 31.422379,15.988377 32.256969,15.906797 
	C32.448227,15.819811 32.647743,15.760925 33.004234,15.700253 
z"/>
<path fill="#F5795F" opacity="1.000000" stroke="none" 
	d="
M32.277969,15.566519 
	C31.422379,15.988377 30.587788,16.069956 29.334976,16.140141 
	C28.948280,15.734348 28.979805,15.339946 29.375849,14.506283 
	C30.240044,13.919054 30.739719,13.771088 31.239395,13.623120 
	C31.592585,14.157494 31.945776,14.691867 32.277969,15.566519 
z"/>
<path fill="#C83E2F" opacity="1.000000" stroke="none" 
	d="
M31.189713,13.457834 
	C30.739719,13.771088 30.240044,13.919054 29.375782,14.210533 
	C28.955969,14.128588 28.900743,13.903130 28.741997,13.343822 
	C29.162045,12.992144 29.685610,12.974314 30.597538,12.970085 
	C30.985897,12.983686 31.140030,13.292548 31.189713,13.457834 
z"/>
<path fill="#D85F3F" opacity="1.000000" stroke="none" 
	d="
M34.981907,14.774199 
	C34.838699,14.958972 34.624874,14.936749 34.129814,14.753498 
	C34.202808,14.584047 34.557049,14.575624 34.981907,14.774199 
z"/>
<path fill="#D8A93A" opacity="1.000000" stroke="none" 
	d="
M20.979330,24.830217 
	C20.187042,25.762026 19.394754,26.693834 18.369461,27.822844 
	C17.636358,28.009651 17.136261,27.999256 16.260244,27.974819 
	C16.447630,26.800749 17.010939,25.640722 18.119387,24.217983 
	C19.383410,23.954327 20.102293,23.953377 20.880566,24.168301 
	C20.939955,24.384171 20.979330,24.830217 20.979330,24.830217 
z"/>
<path fill="#E2C047" opacity="1.000000" stroke="none" 
	d="
M20.821177,23.952429 
	C20.102293,23.953377 19.383410,23.954327 18.303951,23.938862 
	C18.103422,23.352615 18.263466,22.782784 18.852802,22.050068 
	C19.282097,21.887184 19.672297,22.064241 19.672297,22.064241 
	C19.850069,22.011953 20.027843,21.959665 20.536934,22.250847 
	C20.852558,23.047024 20.836866,23.499725 20.821177,23.952429 
z"/>
<path fill="#FDA86D" opacity="1.000000" stroke="none" 
	d="
M19.587034,21.914349 
	C19.672297,22.064241 19.282097,21.887184 19.072111,21.843136 
	C18.862125,21.799089 18.890074,21.760092 18.870224,21.755201 
	C19.071598,21.588614 19.288733,21.593328 19.587034,21.914349 
z"/>
<path fill="#DEBC48" opacity="1.000000" stroke="none" 
	d="
M16.963396,34.838345 
	C16.963396,34.838345 16.478266,34.905148 16.236338,34.943077 
	C15.994409,34.981010 15.503826,34.975353 15.247903,34.741486 
	C14.991980,34.507622 14.974781,34.037315 14.974781,34.037315 
	C14.974733,33.842396 14.974686,33.647472 14.963816,33.158806 
	C15.086113,32.569393 15.285806,32.329010 15.757499,32.024025 
	C16.159681,32.184402 16.356438,32.464676 16.778059,32.871841 
	C17.002924,32.998730 17.013775,32.995773 17.011002,33.244598 
	C17.008228,33.493423 17.005482,33.991096 16.995968,34.202957 
	C16.986452,34.414818 16.963396,34.838345 16.963396,34.838345 
z"/>
<path fill="#CA915A" opacity="1.000000" stroke="none" 
	d="
M14.775293,34.140068 
	C14.974781,34.037315 14.991980,34.507622 15.002598,34.742420 
	C15.013215,34.977219 14.575019,34.992752 14.356668,34.996891 
	C14.171556,34.683300 14.317386,34.430565 14.775293,34.140068 
z"/>
<path fill="#D0A140" opacity="1.000000" stroke="none" 
	d="
M16.899384,36.815300 
	C17.004702,37.203602 16.994896,37.371754 16.951969,37.790855 
	C16.918848,38.041809 16.517620,38.049232 16.319611,38.073654 
	C16.080051,37.640812 16.038500,37.183548 15.987926,36.383537 
	C16.310984,36.133129 16.579435,36.317917 16.899384,36.815300 
z"/>
<path fill="#CB9C35" opacity="1.000000" stroke="none" 
	d="
M17.722731,31.161415 
	C17.960135,31.427343 17.970695,31.876741 17.745029,32.662407 
	C17.508801,32.998676 17.013775,32.995773 17.013775,32.995773 
	C17.013775,32.995773 17.002924,32.998730 17.005154,32.995415 
	C17.170218,32.443027 17.333052,31.893957 17.722731,31.161415 
z"/>
<path fill="#FDA86D" opacity="1.000000" stroke="none" 
	d="
M20.880566,24.168301 
	C20.836866,23.499725 20.852558,23.047024 20.814766,22.259205 
	C20.863352,21.618954 21.026188,21.350721 21.786266,21.042713 
	C22.545479,20.979925 22.768217,20.993814 23.046772,21.291462 
	C23.401608,22.043289 23.700626,22.511360 23.980038,23.228683 
	C23.960426,23.477940 23.959446,23.977509 23.959446,23.977509 
	C23.959446,23.977509 23.998503,24.002209 23.682236,24.046053 
	C22.908285,24.719986 22.450598,25.350075 21.992912,25.980164 
	C21.992912,25.980164 21.995363,25.998714 21.829857,25.938902 
	C21.664352,25.879089 21.355894,25.754719 21.355894,25.754719 
	C21.355894,25.754719 21.181797,25.288609 21.080563,25.059414 
	C20.979330,24.830217 20.939955,24.384171 20.880566,24.168301 
z"/>
<path fill="#FE7450" opacity="1.000000" stroke="none" 
	d="
M21.358284,26.009474 
	C21.355894,25.754719 21.664352,25.879089 21.821632,25.932764 
	C21.978912,25.986439 22.040934,26.456045 22.057129,26.691692 
	C21.835772,26.706305 21.598221,26.485268 21.358284,26.009474 
z"/>
<path fill="#D0A62F" opacity="1.000000" stroke="none" 
	d="
M17.011002,33.244598 
	C17.013775,32.995773 17.508801,32.998676 17.756508,32.999256 
	C18.004213,32.999836 18.027323,33.465416 17.779987,33.715996 
	C17.356928,33.974751 17.181204,33.982922 17.005482,33.991096 
	C17.005482,33.991096 17.008228,33.493423 17.011002,33.244598 
z"/>
<path fill="#D9B442" opacity="1.000000" stroke="none" 
	d="
M16.995968,34.202957 
	C17.181204,33.982922 17.356928,33.974751 17.796597,33.948483 
	C18.054070,34.108238 18.047592,34.286087 18.017448,34.729782 
	C17.821289,34.975819 17.648798,34.956009 17.219852,34.887276 
	C16.963396,34.838345 16.986452,34.414818 16.995968,34.202957 
z"/>
<path fill="#F74E42" opacity="1.000000" stroke="none" 
	d="
M23.999647,22.979429 
	C23.700626,22.511360 23.401608,22.043289 22.924572,21.037792 
	C22.438639,20.288683 22.130718,20.077000 21.822796,19.865318 
	C21.822796,19.865318 21.712366,19.494402 21.747166,19.304037 
	C22.360722,18.891098 22.939478,18.668524 24.047398,18.240494 
	C24.996498,18.117434 25.416433,18.199829 25.847601,18.607613 
	C25.841042,19.590845 25.823248,20.248693 25.550056,20.955795 
	C24.865126,21.270147 24.435593,21.535240 23.991425,22.095037 
	C23.984406,22.586302 23.992025,22.782866 23.999647,22.979429 
z"/>
<path fill="#F95951" opacity="1.000000" stroke="none" 
	d="
M25.836367,18.282225 
	C25.416433,18.199829 24.996498,18.117434 24.255653,18.005726 
	C24.431177,16.772129 24.927616,15.567845 25.678181,14.162863 
	C26.311106,14.816268 26.689905,15.670372 27.147385,16.894188 
	C27.226065,17.263901 27.324303,17.517666 26.956783,17.765974 
	C26.338299,18.103596 26.087334,18.192909 25.836367,18.282225 
z"/>
<path fill="#FE956B" opacity="1.000000" stroke="none" 
	d="
M21.753014,20.115232 
	C22.130718,20.077000 22.438639,20.288683 22.868759,20.754036 
	C22.768217,20.993814 22.545479,20.979925 21.989750,20.924728 
	C21.665581,20.710661 21.674404,20.537905 21.753014,20.115232 
z"/>
<path fill="#F85237" opacity="1.000000" stroke="none" 
	d="
M24.006060,21.800335 
	C24.435593,21.535240 24.865126,21.270147 25.808285,21.050278 
	C26.498524,21.139469 26.675133,21.183437 26.960026,21.522434 
	C27.948971,22.227102 28.829632,22.636740 29.794088,23.063837 
	C29.877882,23.081295 30.027727,22.998522 30.095604,23.144787 
	C30.163483,23.291052 30.234829,23.605555 30.234829,23.605556 
	C29.402647,24.070799 28.570463,24.536041 27.359837,25.032784 
	C26.527731,24.727375 26.074070,24.390471 25.294548,23.707203 
	C24.647812,22.840670 24.326935,22.320503 24.006060,21.800335 
z"/>
<path fill="#FE7450" opacity="1.000000" stroke="none" 
	d="
M22.322166,25.971210 
	C22.450598,25.350075 22.908285,24.719986 23.671661,24.025585 
	C23.978645,24.395151 23.979939,24.829033 23.973927,25.586103 
	C23.528223,25.926949 23.089821,25.944603 22.322166,25.971210 
z"/>
<path fill="#FE7450" opacity="1.000000" stroke="none" 
	d="
M23.991425,22.095037 
	C24.326935,22.320503 24.647812,22.840670 25.002644,23.669952 
	C24.857201,23.982149 24.677799,23.985231 24.228924,23.982910 
	C23.959446,23.977509 23.960426,23.477940 23.980038,23.228683 
	C23.992025,22.782866 23.984406,22.586302 23.991425,22.095037 
z"/>
<path fill="#FC8366" opacity="1.000000" stroke="none" 
	d="
M31.147970,21.129553 
	C31.222591,21.435734 31.228048,21.743141 30.845528,22.396385 
	C30.360384,22.826836 30.194056,22.912680 30.027727,22.998522 
	C30.027727,22.998522 29.877882,23.081295 29.828274,22.679676 
	C29.701750,21.770020 29.624832,21.261980 29.547916,20.753941 
	C29.547915,20.753941 29.823616,20.711456 30.143074,20.925241 
	C30.644775,21.096489 30.827015,21.053953 31.043728,21.041195 
	C31.078199,21.070972 31.147970,21.129553 31.147970,21.129553 
z"/>
<path fill="#FDCECB" opacity="1.000000" stroke="none" 
	d="
M30.095604,23.144787 
	C30.194056,22.912680 30.360384,22.826836 30.779440,22.618732 
	C31.103674,22.868469 30.979824,23.156160 30.447723,23.482553 
	C30.234829,23.605555 30.163483,23.291052 30.095604,23.144787 
z"/>
<path fill="#FC8366" opacity="1.000000" stroke="none" 
	d="
M31.505072,19.935978 
	C31.505072,19.935978 31.878471,19.665071 32.098976,19.741562 
	C32.097042,20.149296 31.874603,20.480541 31.400068,20.970669 
	C31.147970,21.129553 31.078199,21.070972 31.193645,20.784302 
	C31.374418,20.310413 31.439745,20.123196 31.505072,19.935978 
z"/>
<path fill="#FA5C4D" opacity="1.000000" stroke="none" 
	d="
M26.851744,21.227407 
	C26.675133,21.183437 26.498524,21.139469 26.063683,21.001020 
	C25.823248,20.248693 25.841042,19.590845 25.847601,18.607613 
	C26.087334,18.192909 26.338299,18.103596 26.974585,17.900864 
	C27.658119,18.306955 27.956335,18.826466 28.210587,19.888828 
	C28.149275,20.598589 28.131926,20.765493 27.795446,20.991510 
	C27.268127,21.109550 27.059937,21.168480 26.851744,21.227407 
z"/>
<path fill="#FD6148" opacity="1.000000" stroke="none" 
	d="
M26.960026,21.522434 
	C27.059937,21.168480 27.268127,21.109550 28.036234,20.969898 
	C28.596149,20.889175 29.053070,20.723314 29.053070,20.723314 
	C29.053070,20.723314 29.303955,20.725811 29.425936,20.739876 
	C29.624832,21.261980 29.701750,21.770020 29.744480,22.662220 
	C28.829632,22.636740 27.948971,22.227102 26.960026,21.522434 
z"/>
<path fill="#E84033" opacity="1.000000" stroke="none" 
	d="
M28.951578,20.579796 
	C29.053070,20.723314 28.596149,20.889175 28.355362,20.910786 
	C28.131926,20.765493 28.149275,20.598589 28.252373,20.194477 
	C28.528688,20.095667 28.699343,20.255335 28.951578,20.579796 
z"/>
<path fill="#FDCECB" opacity="1.000000" stroke="none" 
	d="
M31.145000,19.906460 
	C31.439745,20.123196 31.374418,20.310413 31.159176,20.754524 
	C30.827015,21.053953 30.644775,21.096489 30.194740,21.054798 
	C30.212940,20.606028 30.498936,20.241486 31.145000,19.906460 
z"/>
</svg>